<svg xmlns="http://www.w3.org/2000/svg" version="1.1" width="600px" height="600px" viewBox="0 0 200 200" style="overflow:hidden!important;"><defs id="SvgjsDefs3086"><linearGradient id="SvgjsLinearGradient5965" x1="81.1774" y1="84.6913" x2="81.1774" y2="107.2461" gradientUnits="userSpaceOnUse" class="svga-on-canvas-glasses-gradient-single-0-null"><stop id="SvgjsStop5966" stop-opacity="1" stop-color="#9bc2cf" offset="0" ></stop><stop id="SvgjsStop5967" stop-opacity="0" stop-color="#6086c4" offset="1" ></stop></linearGradient><linearGradient id="SvgjsLinearGradient5969" x1="-18.8226" y1="84.6913" x2="-18.8226" y2="107.2461" gradientTransform="matrix(-1 0 0 1 100 0)" gradientUnits="userSpaceOnUse" class="svga-on-canvas-glasses-gradient-single-1-null"><stop id="SvgjsStop5970" stop-opacity="1" stop-color="#9bc2cf" offset="0" ></stop><stop id="SvgjsStop5971" stop-opacity="0" stop-color="#6086c4" offset="1" ></stop></linearGradient></defs><g id="svga-group-wrapper"><g id="svga-group-backs-single"></g><g id="svga-group-humanwrap-move" transform="matrix(1,0,0,1,0,0)"><g id="svga-group-humanwrap" transform="matrix(1,0,0,1,0,0)"><g id="svga-group-hair-back-move" transform="matrix(1,0,0,1,0,0)"><g id="svga-group-hair-back" transform="matrix(1,0,0,1,0,0)"></g></g><g id="svga-group-humanbody-back"><path id="SvgjsPath3506" d="M166.5 181.1c-10.9-6.6-24-7.8-31-12.1s-9.1-4.7-8.9-17.8 1.9-42.4 1.9-42.4H71.4s1.6 29.4 1.9 42.4-1.9 13.5-8.9 17.8-20.1 5.4-31 12.1c-10.8 6.6-10 18.9-10 18.9v19.7h153.3V200c-.1 0 .7-12.3-10.2-18.9z" fill="#f0c7b1" stroke-width="none" opacity="1" stroke="none"></path></g><g id="svga-group-chinshadow-single"><path id="SvgjsPath3834" d="M126.7 154.3v-3c.3-13 1.9-42.4 1.9-42.4H71.4s1.6 29.4 1.9 42.4v3c13.2 14 26.7 12.5 26.7 12.5s13.5 1.5 26.7-12.5z" fill="#d19271" stroke-width="none" opacity="1"></path></g><g id="svga-group-humanbody-front"><path id="SvgjsPath3507" d="M176.7 197.2c-.1-.9-.3-1.9-.5-2.8-.4-1.8-1.1-3.6-2-5.3-.4-.8-.9-1.6-1.5-2.4-.5-.8-1.1-1.5-1.8-2.2-1.3-1.4-2.8-2.6-4.4-3.5-3.5-2.1-7.2-3.7-11.1-5.1-1.9-.7-3.8-1.3-5.8-1.9-1.9-.6-3.9-1.2-5.8-1.8-1.9-.6-3.8-1.3-5.6-2.2-.9-.4-1.8-.9-2.6-1.4L133 167c-1.7-1.1-3.3-2.2-4.2-3.9-.2-.4-.4-.8-.6-1.3-.2-.5-.3-.9-.4-1.4-.2-.9-.3-1.9-.4-2.9-.1-2-.1-4 0-6s.2-4 .3-6.1c.2-4 .4-8.1.6-12.1l1.3-24.3.1-1.2h-1.2c-4.8 0-9.5.1-14.3.1l-14.2.1-28.6.4h-.5v.5c.6 10 1.2 19.9 1.6 29.9.2 5 .4 10 .4 15 0 1.2-.1 2.5-.2 3.7s-.3 2.4-.6 3.6c-.3 1.1-.9 2.2-1.7 3.1-.8.9-1.8 1.6-2.8 2.2-1 .7-2.1 1.3-3.2 1.9-.5.3-1.1.6-1.6.9-.5.3-1.1.5-1.7.8-2.3.9-4.6 1.6-7 2.3-4.8 1.4-9.7 2.7-14.4 4.6-2.3 1-4.6 2.1-6.8 3.4-2.2 1.3-4.3 3.1-5.9 5.2-1.6 2.1-2.8 4.4-3.6 6.9-.4 1.2-.7 2.5-.9 3.8-.1.6-.2 1.3-.2 2 0 .3 0 .7-.1 1v20.9h154.6l.1-20c0-1.1-.1-2-.2-2.9zM24.6 217.7v-19.5c0-.6.1-1.2.2-1.8.2-1.2.4-2.3.8-3.5.7-2.3 1.8-4.4 3.2-6.3 1.4-1.9 3.2-3.5 5.2-4.7 2.1-1.3 4.3-2.4 6.5-3.4 4.5-2 9.3-3.4 14.1-4.9 2.4-.8 4.8-1.5 7.1-2.6.6-.3 1.2-.5 1.7-.8.3-.2.6-.3.8-.5.3-.2.6-.3.8-.5 1.1-.7 2.1-1.3 3.2-2s2.1-1.5 3-2.5c.4-.5.8-1.1 1.1-1.7.3-.6.5-1.2.7-1.8.4-1.3.5-2.5.6-3.8s.1-2.5.1-3.8 0-2.5-.1-3.8l-.1-3.7-.3-7.5-1.2-29.2 28 .4 14.3.2c4.4 0 8.7.1 13.1.1-.4 7.7-.8 15.4-1.1 23.1-.1 4.1-.3 8.1-.4 12.2 0 2-.1 4.1-.1 6.1s0 4.1.2 6.2c.1 1 .3 2.1.5 3.1.1.5.3 1 .5 1.5s.4 1 .7 1.5c.3.5.6.9 1 1.3s.8.8 1.2 1.1c.8.7 1.7 1.2 2.6 1.7l2.6 1.5c.9.5 1.8 1 2.8 1.4 1.9.8 3.8 1.4 5.8 2 3.9 1.1 7.8 2.2 11.7 3.5 1.9.6 3.8 1.4 5.7 2.2 1.8.8 3.6 1.8 5.4 2.8 1.6 1 3 2.2 4.3 3.5.6.7 1.2 1.4 1.7 2.2s1 1.6 1.4 2.4c.8 1.7 1.5 3.4 1.9 5.2.2.9.3 1.8.4 2.7.1.8.1 20.6.1 21.4-12.6-.2-151.7-1-151.7-1z" fill="#c27b55" stroke-width="none" opacity="1" stroke="none"></path><path id="SvgjsPath3508" d="M78.7 156.8c.5 4.8 1.7 9.4 3.1 13.9.8 2.3 1.6 4.6 2.6 6.9.8 2 1.7 4.2 3.1 5.9.3.4 1 0 .9-.5-.5-2.2-1.6-4.3-2.4-6.4-.9-2.2-1.7-4.4-2.5-6.6-1.5-4.4-2.8-8.9-4.1-13.3-.2-.4-.8-.3-.7.1zm41.3-1c-1.3 8.2-3.9 16.1-5.4 24.2-.1.4.4.5.6.2 3.1-7.7 4.1-16.1 5.1-24.3-.1-.2-.3-.2-.3-.1zm-25.8 11.9c-.9 3.6 1.9 8.6 6.2 7.6.5-.1.4-.8 0-1-1.4-.5-2.9-.9-3.9-2.1-1.1-1.2-1.5-2.9-1.4-4.5 0-.4-.8-.5-.9 0z" fill="#d19271" stroke-width="none" opacity="1" stroke="none"></path></g><g id="svga-group-clothes-single"><path id="SvgjsPath6824" d="M100.8 184.4c-1.1-3-8.2-7.8-13.2-10.6s-9.1-7.1-12.1-11c-3-3.9-2.2-6.3-2.2-6.3-.1-4.7-.6-10.1-.8-15.4-4.2-1.6-9.8 4-10.6 4.8-6.5 6.3-3.1 8.5-5.7 11.5-9.2 2.1-7.1 14.2-10.7 15-8.7 1.9-21.2 7-24.2 21 0 0-1.6 9.2-1.6 26.7h160.7c0-17.5-1.6-26.7-1.6-26.7-3.2-15.2-17.6-19-26.1-21.4-1.4-.6.2-5.2-2.5-10.5-1.4-2.7-3.9-6.5-9.3-7.8 0 0-1.2-6.6-5.4-9.9-4.2-3.3-7.1-3.8-7.1-3.8s-.3 13-.3 15.1c0 3.2-.8 3.9-2.2 5.7s-7.9 7.1-10.4 10.7-10.1 7.5-11.7 9c-1.6 1.5-3 3.9-3 3.9z" fill="#638e2f" stroke-width="none" opacity="1" stroke="none"></path><path id="SvgjsPath6825" d="M105.6 187.4c-.6.6-1.7 3.4-1.8 5.7s1.8 11.5 2.1 13.4-1 7.4-1 8.5 2.8 2.8 3.1 1.7c.3-1.1 1.2-8.4.2-10.9s-2.2-10.1-2.2-11.6 1.1-5.6 1.6-6.5c0 0 .2-.8-.6-.9-.8-.1-1.4.6-1.4.6z" fill="#d6d6d6" stroke-width="none" opacity="1"></path><path id="SvgjsPath6826" d="M95.7 186.5s1.7-1.2 1.9 1c0 0-1.2 2.8-1.2 4.8s2.2 11.9 2.5 14.1-2.7 10.4-3.1 10.5-2.1-.9-2.6-1.3c-.4-.4 2.5-6.9 2.8-9.9.3-2.9-.4-8.7-1.2-12.2-.8-3.5.6-6.4 1-6.9" fill="#d6d6d6" stroke-width="none" opacity="1"></path><path id="SvgjsPath6827" d="M181.4 204.3c-.2-2.6-.4-5.2-.7-7.9l-.2-2-.1-1v-.3c0-.1 0-.2-.1-.3l-.1-.5c-.3-1.4-.7-2.7-1.2-4-1.1-2.6-2.6-5-4.4-7.1-1.9-2.1-4.1-3.8-6.5-5.2-4.6-2.7-9.6-4.2-14.5-5.5v-.1c-.1-.4-.1-.9-.1-1.4-.1-1-.1-2-.3-3.1-.3-2.1-1.1-4.2-2.1-6-1-1.8-2.4-3.6-4.1-4.9-1.5-1.2-3.2-2-5-2.6-.4-1.4-.8-2.8-1.4-4.1-.7-1.6-1.6-3.1-2.9-4.4-1.3-1.4-2.7-2.2-4.2-3.1-.7-.4-1.5-.8-2.3-1.2-.8-.4-1.6-.7-2.6-.9h-.2c-.6 0-1.1.5-1.1 1.1l-.1 14c0 1.2.1 2.3-.2 3.3-.1.5-.3.9-.5 1.4-.3.4-.6.9-1 1.3-.7.9-1.5 1.6-2.3 2.5l-2.5 2.4c-1.7 1.6-3.3 3.3-4.8 5.2-.4.4-.7 1-1.1 1.4-.2.2-.3.4-.5.6l-.6.6c-.8.8-1.7 1.5-2.6 2.2-1.8 1.4-3.8 2.7-5.7 4-.5.3-1 .7-1.4 1.1-.5.4-.8.9-1.2 1.3-.4.5-.7.9-1 1.4l-.5.8-.2.4-.1.1-.2-.3-.3-.6c-.2-.4-.5-.7-.8-1l-1.8-1.8c-1.3-1.1-2.6-2.2-4-3.2s-2.8-1.9-4.2-2.8c-1.4-.9-2.9-1.7-4.2-2.7-2.7-2-5.1-4.3-7.2-6.8-1.1-1.3-2.2-2.6-2.9-3.9-.4-.7-.7-1.4-.9-2.1-.1-.4-.2-.7-.2-1.1v-.5c0-.1 0-.4.1-.4 0-.1.1-.2 0-.3-.1-5.2-.5-10.3-.7-15.4 0-.4-.3-.8-.7-1-1.3-.5-2.6-.5-3.8-.2-1.2.3-2.2.8-3.2 1.4-2 1.1-3.6 2.6-5.2 4.1-1.5 1.6-3.1 3.3-3.9 5.6-.4 1.1-.5 2.4-.7 3.4-.1.9-.3 1.4-.7 1.9-1.7.4-3.3 1.3-4.5 2.5-1.4 1.4-2.3 3-2.9 4.7-.7 1.7-1.1 3.4-1.5 4.9-.2.8-.5 1.5-.8 2.1-.1.3-.3.4-.4.5 0 0-.1 0-.1.1l-.6.1c-3.3.8-6.6 1.9-9.8 3.4-3.1 1.6-6 3.6-8.4 6.2-2.4 2.6-4.2 5.7-5.3 9-.3.8-.5 1.7-.7 2.5l-.1.7c0 .1 0 .2-.1.4v.3l-.2 1.3c-.2 1.7-.3 3.4-.5 5-.5 6.7-.6 13.4-.5 20.1 0 .4.3.7.7.7 13.4-.2 26.8-.3 40.2-.2l20.1.1 20.1.2c13.4.2 26.8.4 40.2.5l40.2.2c.8 0 1.5-.7 1.5-1.5-.2-5-.3-10.3-.7-15.6zm-27.8-33.4zm-24.4-24.1c.8 1 1.4 2.1 1.6 3.2.1.8.1 1.6-.1 2.5-.2.8-.5 1.6-.9 2.4-.3.5-.6 1.1-1 1.6.1-.8.1-1.6.1-2.4l.3-7.3zm-55.5 14.9c.9 1.4 1.9 2.6 3 3.8-.4-.3-.8-.5-1.2-.8-1.2-.8-2.3-1.7-3.1-2.9-1.8-2.2-2.7-5.1-3.4-8-.3-1.4-.6-2.9.3-3.8.4-.5 1.1-.9 1.8-1.3.2-.1.4-.3.7-.4.2 2.7.4 5.4.5 8.1-.1.3-.1.4-.1.7v.8c.1.5.2 1 .3 1.4.3.8.7 1.7 1.2 2.4zM48 171.8c.5-.9.8-1.8 1-2.6.5-1.7.8-3.2 1.4-4.7.5-1.5 1.3-2.8 2.3-3.8s2.3-1.7 3.7-2c.2 0 .3-.1.5-.2.1 1.1.2 2.2.4 3.3.3 1.7.7 3.4 1.4 5 .3.9.8 1.6 1.2 2.4.5.7 1 1.5 1.5 2.2 2.3 2.8 5.1 4.8 8.2 6.4 3.1 1.6 6.3 2.8 9.7 3.4-3.1-1.4-6.1-3-8.9-4.8-1.4-.9-2.8-1.8-4-2.9-1.3-1.1-2.5-2.2-3.4-3.4-.5-.6-1-1.3-1.4-1.9-.4-.7-.8-1.4-1.1-2.1-.7-1.4-1.1-3.1-1.6-4.6-.4-1.4-.7-2.9-.9-4.3.1-.2.2-.3.2-.5.2-.6.3-1.3.4-1.9.1-1.1.2-2 .5-2.9.6-1.7 1.9-3.3 3.3-4.7 1.4-1.5 3-2.8 4.6-3.8 1.4-.9 3-1.4 4.4-1.2.1 2 .3 3.9.4 5.9l-.9.3c-.7.3-1.5.5-2.2 1.1-.7.5-1.1 1.5-1.2 2.3-.1.9 0 1.7.1 2.5.4 3.1 1.3 6.3 3.3 8.9 1 1.3 2.3 2.4 3.6 3.2l3.9 2.4c1.3.8 2.6 1.5 3.9 2.2.8.6 1.5 1.2 2.3 1.7 1.4 1 2.9 1.8 4.4 2.6 1.4.8 2.9 1.7 4.3 2.6s2.8 1.9 4.1 2.9c.7.5 1.3 1.1 1.9 1.7.3.3.6.6.8.9.1.2.2.3.3.5l.2.3c.1.1.2.3.3.4 0 0 .1 0 .2-.1v-.1l.1-.1.1-.2.2-.4.5-.7c.3-.5.7-.9 1.1-1.4.4-.4.8-.9 1.2-1.2.4-.3.9-.7 1.4-1 2-1.2 4-2.4 5.9-3.8 1-.7 1.9-1.4 2.8-2.2.2-.2.4-.4.7-.6.2-.2.4-.4.6-.7.4-.5.7-.9 1.1-1.4 1.5-1.7 3.2-3.3 4.9-4.9l2.6-2.4c.7-.7 1.4-1.3 2.1-2.1l1.5-1.2c1.5-1.3 2.8-2.7 3.8-4.5 1-1.8 1.4-4.1.7-6.1-.5-1.6-1.7-2.8-3-3.6l.2-4.6c.2.1.5.2.8.3.7.3 1.4.7 2 1.1 1.3.8 2.6 1.8 3.6 2.8 1 1.1 1.8 2.4 2.4 3.8.6 1.4 1.1 2.9 1.4 4.4.1.5.5.9 1 1.1.1 0 .1 0 .2.1-.2 2-.6 4-1.4 5.8-.6 1.5-1.3 2.9-2.3 4-1 1.2-2.2 2.3-3.4 3.3-.6.5-1.2 1-1.8 1.6l-1.9 1.5c-1.3 1-2.6 2-3.9 2.9-2.6 1.9-5.3 3.8-7.9 5.8 3.1-1.3 6-2.8 8.8-4.5 2.8-1.7 5.6-3.6 8.1-5.8.6-.6 1.3-1.1 1.8-1.7l.9-.9.8-1c1.1-1.4 1.8-3 2.3-4.7.6-2 .8-4 .7-6.1 1.4.5 2.6 1.1 3.7 2.1 1.4 1.1 2.4 2.6 3.3 4.2.9 1.6 1.5 3.3 1.7 5.1.1.9.2 1.8.2 2.8 0 .5 0 1 .1 1.6 0 .3.1.6.2 1.1.1.2.2.5.4.7l.1.1-1.4 1.4c-.9.8-1.9 1.6-2.8 2.4-1.9 1.6-3.9 3.1-5.9 4.5-2 1.4-4 2.9-6.1 4-1.1.6-2.1 1.1-3.2 1.5-1.1.4-2.3.8-3.5 1.1-2.4.7-4.8 1.3-7.2 1.8-2.4.6-4.8 1.1-7.2 1.5l-3.6.6c-.6.1-1.2.1-1.7.1-.6 0-1.1-.2-1.6-.4l-.2-.1c.3-1.1.6-2.3 1-3.3.1-.2 0-.5-.1-.7s-.4-.3-.7-.3c-.5 0-.9.3-1.2.6.3-.4.8-.6 1.2-.6.2 0 .5.1.6.3.1.2.2.4.1.7-.5 1.2-.8 2.4-1.2 3.7-.3 1.2-.6 2.6-.4 3.9.2 2.6.6 5.1 1.1 7.7.1.6.3 1.3.4 1.9l.3.9c.1.3.2.6.2.9.2 1.2.2 2.5.2 3.8-.1 1.3-.2 2.6-.3 3.8-.1.6-.2 1.3-.3 1.9 0 .1-.1.3-.1.4-.1 0-.4 0-.6-.1-.5-.2-1-.6-1.3-1-.1-.1-.1-.2-.2-.3v-.3c0-.3.1-.6.1-.9.2-1.3.4-2.5.6-3.8.1-.6.2-1.3.2-1.9 0-.6 0-1.4-.1-2l-.8-3.8c-.5-2.5-1.1-5.1-1.4-7.6-.1-.6-.1-1.3-.1-1.9 0-.5.1-.9.2-1.4.1.1.3.1.4.2-.1-.1-.3-.2-.4-.2 0-.1.1-.3.1-.5.2-.6.3-1.2.6-1.9-.2.6-.4 1.2-.6 1.9 0 .1-.1.3-.1.4-1-.6-2.1-.9-3.3-1.1-1.3-.2-2.5-.3-3.8-.5.2-.8.4-1.5.7-2.2 0-.2-.1-.5-.2-.7s-.2-.4-.5-.6c-.5-.2-1 0-1.4.3.4-.2.9-.4 1.3-.2s.5.8.5 1.2c-.5 1.2-1 2.4-1.2 3.8-.1.6-.2 1.4-.1 2 .1.7.2 1.3.3 2 .4 2.6.9 5.2 1.4 7.8l.3 1.9c.1.6.2 1.3.2 1.9-.1 1.2-.4 2.5-.8 3.7-.4 1.2-.8 2.5-1.2 3.7-.2.6-.5 1.2-.7 1.8-.1.1-.1.2-.2.4-.2-.1-.4-.1-.7-.3-.3-.1-.6-.3-.8-.5-.1-.1-.2-.2-.4-.3l-.1-.1c0-.2.1-.5.2-.8l.3-.9 1.3-3.7c.4-1.3.8-2.5 1-3.9.2-1.4.1-2.7 0-4-.2-2.6-.7-5.2-1.2-7.8-.6-1.8-.6-3.9-.1-5.7h.1s0-.1-.1-.1c.2-.6.4-1.2.7-1.8-.3.5-.6 1.1-.8 1.7-.5-.6-.8-1.4-.6-1.9.2-.6.8-1 1.6-.9.7 0 1.4.4 2 .9.3.3.5.6.6 1 .1.3-.1.7-.5 1 .2 0 .5-.1.7-.3s.3-.5.3-.7c0-.5-.2-1-.5-1.4-.6-.8-1.5-1.4-2.5-1.5-.5 0-1.1.1-1.6.4s-.8.8-.8 1.4c-.1 1.1.6 1.8 1.4 2.2-.1.4-.2.7-.3 1.1l-5.5-.7c-2.6-.4-5.2-.6-7.8-1-2.6-.4-5.2-.8-7.7-1.3-1.3-.2-2.5-.5-3.7-.9-1.2-.3-2.4-.9-3.6-1.4-2.4-1-4.7-2.3-6.9-3.5-2.3-1.3-4.5-2.6-6.7-4-1.1-.7-2.2-1.4-3.2-2.2l-1.5-1.2-.6-.6c-.2-.8 0-1.1.2-1.4zm52 47.5-20.1.2-20.1.1c-13.2.1-26.3 0-39.5-.2.1-6.4.4-12.9 1.1-19.3.2-1.6.4-3.3.6-4.9l.2-1.2v-.3c0-.1 0-.2.1-.3l.1-.6c.2-.8.4-1.5.7-2.3 1.1-3 2.8-5.7 5-8s4.9-4.1 7.8-5.5c2.9-1.4 6-2.5 9.1-3.2l.6-.1c.4-.1.7-.2 1-.5.2-.1.3-.2.4-.4.5.8 1.2 1.4 1.9 2.1 1 .9 2 1.8 3 2.6 2.1 1.6 4.2 3.1 6.5 4.6 2.2 1.4 4.5 2.7 6.9 3.9 1.2.6 2.4 1.1 3.8 1.5 1.3.4 2.6.7 3.9 1 5.2 1 10.4 1.6 15.7 1.9 2.2.1 3.4.2 5.5.2-.1 1.2 0 2.5.2 3.7.5 2.6.8 5.2.9 7.8.1 1.3.1 2.6-.1 3.9-.2 1.2-.6 2.5-1 3.7l-1.3 3.7c-.1.3-.2.6-.3 1-.1.3-.2.6-.2 1.1v.3c0 .1.1.2.1.2l.1.1c.1.1.2.1.2.2.1.1.3.2.4.3.3.2.6.4.9.5.3.2.6.3 1.1.4h.4c.2-.1.2-.1.3-.2.1-.1.2-.2.2-.3.1-.2.2-.3.2-.5.3-.6.5-1.2.7-1.9.4-1.2.8-2.5 1.2-3.8.3-1.3.7-2.6.8-4 0-.8-.2-1.4-.3-2-.1-.6-.2-1.3-.4-1.9-.5-2.6-1.1-5.1-1.6-7.7-.1-.6-.2-1.3-.3-1.9-.1-.6-.1-1.3 0-1.9 0-.2.1-.4.1-.6 2.4.1 4.9-.1 7.2.7-.1.5-.2.9-.2 1.4-.1.6 0 1.3.1 1.9.3 2.6.7 5.1 1.1 7.7l.6 3.8c.2 1.2-.1 2.5-.3 3.7l-.7 3.8c-.1.3-.1.6-.1 1 0 .1 0 .5.1.7.1.2.2.4.3.5.5.6 1.1 1 1.7 1.3.3.1.7.3 1.3.2.3-.1.6-.4.7-.6.1-.2.1-.4.1-.5.1-.7.2-1.3.3-2 .2-1.3.2-2.6.3-3.9 0-1.3 0-2.6-.3-3.9-.1-.3-.2-.7-.3-1l-.3-.9c-.2-.6-.4-1.2-.5-1.9-.6-2.5-1.1-5-1.5-7.6-.2-1-.1-2.1.2-3.1.6.3 1.3.5 1.9.6.3.1.7.1 1 .1h1c1.3 0 2.5-.2 3.8-.3 5-.6 9.9-1.6 14.7-2.9 1.2-.4 2.4-.7 3.6-1.2 1.2-.4 2.4-1 3.5-1.7 2.2-1.3 4.2-2.8 6.1-4.4 1.9-1.6 3.8-3.2 5.6-5 .9-.9 1.8-1.8 2.6-2.8.4-.5.8-1 1.2-1.6.2.1.4.3.6.4.1 0 .1.1.2.1 5 1.4 9.9 2.9 14.2 5.5 4.3 2.5 7.7 6.2 9.6 10.7.4 1.1.8 2.3 1.1 3.5l.1.4v.4l.1.9.2 1.9c.3 2.6.5 5.1.7 7.7.3 4.7.5 9.4.5 14.1l-38.6.2c-13.2.2-26.6.4-40 .6zm4.7-30.4c-.3-.4-.4-.8-.4-1.1 0-.4.1-.7.3-1 .4-.5 1.2-.7 1.9-.6.7.1 1.5.5 1.8 1.1.2.3.2.6.1 1s-.4.7-.7 1.1c.4-.1.8-.4 1.1-.9.3-.4.3-1.1.1-1.6-.4-1-1.4-1.6-2.4-1.8-.5-.1-1-.1-1.5.1s-1 .5-1.2 1c-.2.4-.3 1-.2 1.5.3.6.7 1 1.1 1.2zM41 209.2c-.7-2.7-1.6-5.3-2.8-7.8-1.2-2.5-2.7-4.9-4.5-7-1.8-2.1-3.8-4.1-6.2-5.4 1.1.8 2.1 1.8 3 2.8 1 1 1.8 2 2.6 3.1 1.6 2.2 3 4.5 4.2 7 .6 1.2 1.2 2.4 1.6 3.7.5 1.2.9 2.6 1.4 3.8.4 1.3.7 2.6 1.1 3.9.3 1.3.6 2.7.9 4-.1-1.4-.3-2.7-.5-4.1-.2-1.3-.4-2.6-.8-4zm125.6-13.9c-1.8 1.9-3.3 4.1-4.5 6.4-1.2 2.3-2.2 4.8-3 7.3-.4 1.2-.6 2.5-1 3.8l-.6 3.9c.4-1.2.7-2.5 1.1-3.7.4-1.2.8-2.5 1.2-3.7.2-.6.5-1.2.7-1.8s.5-1.2.8-1.8c.5-1.2 1.1-2.3 1.7-3.5 1.2-2.2 2.6-4.4 4.2-6.4.8-1 1.7-1.9 2.6-2.9.9-.9 1.9-1.8 3-2.4-2.4 1.1-4.4 2.9-6.2 4.8z" fill="#446f0f" stroke-width="none" opacity="1" stroke="none"></path></g><g id="svga-group-head" transform="matrix(1,0,0,1,0,0)"><g id="svga-group-ears-left-move" transform="matrix(1,0,0,1,0,0)"><g id="svga-group-ears-left" transform="matrix(1,0,0,1,0,0)"><path id="SvgjsPath3406" d="M62 92.9c-.2-.3-3.3-4.3-5.9-6.7-2.6-2.4-3.4-2.4-4.6-.9-1.3 1.5-2.9 9.1-2.5 12.4.4 3.4 3.6 8.7 5.2 11.7 1.7 3 3.3 6.7 5.1 6.3 1.9-.4 4.4-4.6 5.7-7.7 1.3-3.1.5-10.8-3-15.1z" fill="#f0c7b1" stroke-width="none" opacity="1" stroke="none"></path><path id="SvgjsPath3407" d="M65.8 102c.1.9.2 1.7.2 2.6s0 1.7-.2 2.6c-.1.4-.2.9-.3 1.3-.1.4-.3.7-.4 1.1-.3.7-.6 1.4-1 2.1-.7 1.3-1.5 2.6-2.6 3.6-.5.5-1.1 1-1.8 1.3-.4.1-.9.1-1.3 0-.4-.2-.8-.5-1.1-.8-1.2-1.3-1.9-2.8-2.7-4.3-.7-1.5-1.5-2.9-2.2-4.3-.7-1.5-1.5-2.9-2.1-4.4-.3-.8-.7-1.5-.9-2.3-.3-.8-.5-1.6-.6-2.5-.2-1.7 0-3.4.1-5 .2-1.6.5-3.2.8-4.8.2-.8.4-1.6.8-2.3l.3-.6c.1-.2.3-.4.4-.5.2-.3.5-.6.9-.8.3-.2.8-.3 1.2-.3.4.1.8.3 1.1.5.7.4 1.2 1 1.8 1.5 2.2 2.2 4 4.8 5.9 7.2 1.9 2.4 3.2 5.7 3.7 9.1zM55.7 86.4c-1.1-.9-2.4-1.9-3.1-1.2-.2.1-.4.4-.6.6l-.3.3c-.1.1-.1.3-.2.4-.3.6-.5 1.3-.8 2-.5 1.4-.9 2.9-1.1 4.5-.3 1.5-.5 3.1-.4 4.7.1.8.3 1.6.6 2.3.3.8.6 1.5.9 2.2.7 1.5 1.5 2.8 2.3 4.2.8 1.4 1.7 2.7 2.5 4.1.4.7.8 1.4 1.2 2s.8 1.3 1.3 1.7c.5.4.9.6 1.3.4.5-.2.9-.6 1.4-1.1.9-1 1.6-2.1 2.3-3.4.4-.6.7-1.3 1-1.9.2-.3.3-.7.4-1l.2-.5c0-.2.1-.3.1-.5.3-1.4.4-3 .3-4.6s-.4-3.2-.9-4.8c-.5-1.6-1.2-3-2.2-4.2-1.9-2.1-4-4.3-6.2-6.2z" fill="#e1ac8f" stroke-width="none" opacity="1" stroke="none"></path><path id="SvgjsPath3408" d="M51.2 99.4c-.3-2.3-.5-7.8.8-9.6 2.2-2.9 6 6.4 6.9 9.3 0 .1.1.2.1.3.2.3-.1.7-.4.6-.4-.2-.9-.6-1.3-.8-1.1-.5-1.6.5-1.3 1.8.4 1.8 1.4 2.9 2.2 4.3.1.2 0 .4-.2.3-1.6-.9-3.5-4.5-3.1-6.6.3-2 1.9-1.8 3.1-.8-.7-1.7-1.5-3.3-2.5-4.8-.6-.9-1.2-2-2.2-2.2-1.2-.2-1 .3-1.2 1.8-.8 4.8-.3 10.4 2.5 14.5.1.1 0 .2-.1.1-1.8-2.3-3-4.9-3.3-8.2z" fill="#d19271" stroke-width="none" opacity="1" stroke="none"></path></g></g><g id="svga-group-ears-right-move" transform="matrix(1,0,0,1,0,0)"><g id="svga-group-ears-right" transform="matrix(1,0,0,1,0,0)"><path id="SvgjsPath3409" d="M138 92.9c.2-.3 3.3-4.3 5.9-6.7 2.6-2.4 3.4-2.4 4.6-.9 1.3 1.5 2.9 9.1 2.5 12.4s-3.6 8.7-5.2 11.7c-1.7 3-3.3 6.7-5.1 6.3-1.9-.4-4.4-4.6-5.7-7.7s-.5-10.8 3-15.1z" fill="#f0c7b1" stroke-width="none" opacity="1" stroke="none"></path><path id="SvgjsPath3410" d="M138 92.9c1.9-2.4 3.8-5 5.9-7.2.5-.5 1.1-1.1 1.8-1.5.3-.2.7-.4 1.1-.5.4-.1.9.1 1.2.3.3.2.6.5.9.8.1.1.2.3.4.5l.3.6c.3.7.6 1.5.8 2.3.4 1.6.7 3.2.8 4.8.2 1.6.3 3.3.1 5-.1.9-.4 1.7-.6 2.5-.3.8-.6 1.6-.9 2.3-.7 1.5-1.4 3-2.1 4.4-.8 1.5-1.5 2.9-2.2 4.3-.8 1.4-1.4 3-2.7 4.3-.3.3-.7.6-1.1.8-.4.2-.9.2-1.3 0-.8-.3-1.3-.8-1.8-1.3-1-1.1-1.8-2.3-2.6-3.6-.4-.7-.7-1.4-1-2.1-.2-.4-.3-.7-.4-1.1-.1-.4-.3-.8-.3-1.3-.1-.9-.2-1.7-.2-2.6s.1-1.7.2-2.6c.4-3.4 1.7-6.7 3.7-9.1zm.1.1c-1 1.2-1.7 2.7-2.2 4.2-.5 1.6-.8 3.2-.9 4.8-.1 1.6 0 3.2.3 4.6 0 .2.1.3.1.5l.2.5c.1.3.3.7.4 1 .3.7.6 1.3 1 1.9.7 1.2 1.5 2.4 2.3 3.4.4.5.9.9 1.4 1.1.4.2.8 0 1.3-.4s.9-1 1.3-1.7c.4-.6.8-1.3 1.2-2 .8-1.4 1.7-2.8 2.5-4.1.8-1.4 1.6-2.8 2.3-4.2.4-.7.7-1.5.9-2.2.3-.8.5-1.6.6-2.3.1-1.6-.1-3.2-.4-4.7-.3-1.5-.7-3-1.1-4.5-.2-.7-.5-1.4-.8-2-.1-.1-.1-.3-.2-.4-.1-.1-.1-.2-.3-.3-.2-.2-.4-.5-.6-.6-.7-.6-2 .4-3.1 1.2-2.2 1.5-4.3 3.7-6.2 6.2z" fill="#e1ac8f" stroke-width="none" opacity="1" stroke="none"></path><path id="SvgjsPath3411" d="M148.8 99.4c.3-2.3.5-7.8-.8-9.6-2.2-2.9-6 6.4-6.9 9.3 0 .1-.1.2-.1.3-.2.3.1.7.4.6.4-.2.9-.6 1.3-.8 1.1-.5 1.6.5 1.3 1.8-.4 1.8-1.4 2.9-2.2 4.3-.1.2 0 .4.2.3 1.6-.9 3.5-4.5 3.1-6.6-.3-2-1.9-1.8-3.1-.8.7-1.7 1.5-3.3 2.5-4.8.6-.9 1.2-2 2.2-2.2 1.2-.2 1 .3 1.2 1.8.8 4.8.3 10.4-2.5 14.5-.1.1 0 .2.1.1 1.8-2.3 3-4.9 3.3-8.2z" fill="#d19271" stroke-width="none" opacity="1" stroke="none"></path></g></g><g id="svga-group-faceshape-wrap" transform="matrix(1,0,0,1,0,0)"><g id="svga-group-faceshape-single"><path id="SvgjsPath3823" d="M143.2 82v-.3c-1.3-29.9-20.7-46.4-43.2-46.4S58.1 51.8 56.9 81.7v.3c0 3 0 30.2 5.7 41.9C77.7 155 100 153.7 100 153.7s22.3 1.4 37.5-29.8c5.7-11.7 5.7-38.9 5.7-41.9z" fill="#f0c7b1" stroke-width="none" opacity="1"></path><path id="SvgjsPath3824" d="M137.5 123.9c5.7-11.7 5.7-38.9 5.7-41.9v-.3c-1.3-29.9-20.7-46.4-43.2-46.4S58.1 51.8 56.9 81.7v.3c0 3 0 30.2 5.7 41.9C77.7 155 100 153.7 100 153.7s22.3 1.4 37.5-29.8zM87.7 148c-4.2-1.7-8.5-5.5-11.8-8.8l-2.4-2.5-2.2-2.8c-.8-.9-1.4-1.9-2.1-2.9-.6-1-1.3-1.9-2-3l-1.7-3.1c-.6-1-1.2-2.1-1.6-3.1-1-2-1.6-4.3-2.3-6.6-1.2-4.6-2-9.4-2.6-14.2-.6-4.8-1-9.7-1.2-14.5-.1-2.4-.2-4.9 0-7.2.1-1.2.1-2.4.3-3.6l.6-3.6.1-.9.2-.9.5-1.7.5-1.7c.1-.6.4-1.1.6-1.7.4-1.1.8-2.3 1.3-3.4l1.6-3.2c2.3-4.2 5.3-8 8.8-11.1 3.5-3.1 7.6-5.6 12-7.2s9-2.5 13.6-2.7 9.3.3 13.8 1.5c8.9 2.4 17 7.9 22.6 15.7l2 3c.6 1 1.1 2.1 1.7 3.2.6 1.1 1 2.2 1.5 3.3.4 1.1.9 2.2 1.2 3.4l1 3.5c.2 1.2.5 2.4.7 3.6l.3 1.8.2 1.9c.1 1.5.2 3.8.2 5.3-.1 7.1-.6 14.2-1.8 21.2-.6 3.8-1.4 7.5-2.5 11.2-.3.9-.5 1.8-.9 2.7-.4.9-.6 1.8-1 2.6-.7 1.6-1.8 3.2-2.7 4.9-.5.8-.9 1.6-1.5 2.4l-1.6 2.3c-.6.8-1 1.6-1.6 2.3l-1.8 2.1c-1.1 1.5-2.5 2.7-3.7 4.1-.6.7-3.3 3-4.1 3.5 0 0-2.3 1.8-7.3 4.5-1.2.6-2.4 1.2-3.7 1.6-4.3 1.7-9.1 3.7-21.2-1.2z" fill="#c27b55" stroke-width="none" opacity="1"></path></g></g><g id="svga-group-mouth-single-move" transform="matrix(1,0,0,1,0,0)"><g id="svga-group-mouth-single" transform="matrix(1,0,0,1,0,3)"><path id="SvgjsPath4407" d="M85.9 127.36c1.93 1.35 3.95.8 6.06.2 1.1-.31 1.84-.44 3.03-.4 1.4.05 1.65.32 2.77.82.84.37 1.64.61 2.55.48 1.07-.15 1.89-.82 2.89-1.19 2.34-.87 4.17.21 6.35.86 2.06.61 4.33 1.01 6.18-.31.5-.36.08-1.04-.47-.81-2.86 1.23-5.21-.02-8.04-.43-2.23-.32-3.9.22-6.05.57-2.45.4-4.48-1.02-6.92-1.03-2.61-.02-5.17 1.6-7.62 0-.78-.53-1.48.71-.73 1.24z" fill="#d19271" stroke-width="none" opacity="1"></path><path id="SvgjsPath4408" d="M90.88 131.69c5.13 2.8 13.52 3.04 18.9.91.23-.09.23-.49-.06-.47-3 .23-5.96.73-8.98.62-3.33-.12-6.39-1.07-9.64-1.56-.29-.05-.52.33-.22.5z" fill="#d99e80" stroke-width="none" opacity="1"></path><path id="SvgjsPath4409" d="M97.44 121.8c.65.79 2.04 1.02 3.16 1.01 1-.01 2.61-.2 2.96-1.06.09-.21-.14-.38-.39-.4-.88-.08-1.8.47-2.73.49-.96.03-1.8-.3-2.74-.39-.22-.03-.37.21-.26.35z" fill="#e0ab90" stroke-width="none" opacity="1"></path></g></g><g id="svga-group-eyes-left-move" transform="matrix(1,0,0,1,0,0)"><g id="svga-group-eyes-left" transform="matrix(1,0,0,1,0,0)"><g id="svga-group-eyesback-left"><path id="SvgjsPath3446" d="M89.2 98s-.1-2.4-1.3-4.2c-1.2-1.8-3.7-4.7-8.4-4.9S71 90.8 71 90.8s.5 3.5 2.2 4.9c1.7 1.4 4.6 3.5 9.3 3.3 4.8-.1 6.7-1 6.7-1z" fill="#ffffff" stroke-width="none" opacity="1"></path></g><g id="svga-group-eyesiriswrapper-left" transform="matrix(1,0,0,1,0,0)"><g id="svga-group-eyesiriscontrol-left" transform="matrix(1,0,0,1,0,0)"><g id="svga-group-eyesiris-left" transform="matrix(1,0,0,1,0,0)"><path id="SvgjsPath4932" d="M80.1 88.3c2.9 0 5.2 2.3 5.2 5.2s-2.3 5.2-5.2 5.2-5.2-2.3-5.2-5.2 2.3-5.2 5.2-5.2z" fill="#66724e" stroke-width="none" opacity="1" stroke="none"></path><path id="SvgjsPath4933" d="M80.1 88.6c2.7 0 4.9 2.2 4.9 4.9s-2.2 4.9-4.9 4.9-4.9-2.2-4.9-4.9 2.1-4.9 4.9-4.9m0-.5c-3 0-5.5 2.4-5.5 5.5 0 3 2.4 5.5 5.5 5.5 3 0 5.5-2.4 5.5-5.5s-2.5-5.5-5.5-5.5z" fill="#455328" stroke-width="none" opacity="1" stroke="none"></path><path id="SvgjsPath4934" d="M82.7 89c-.1.3-.3.7-.5 1-.2.3-.4.6-.7.9.1-.3.3-.7.5-1 .2-.4.4-.7.7-.9zm.7.6-.6.9c-.2.3-.5.6-.8.8l.6-.9c.3-.3.5-.6.8-.8zm-.9 2c.2-.3.4-.5.6-.7.2-.2.5-.4.8-.5-.2.3-.4.5-.6.7-.2.2-.5.4-.8.5zm.3.6c.3-.2.6-.3.9-.4.3-.1.6-.2 1-.3-.3.2-.6.3-.9.4-.4.2-.7.3-1 .3zm.3.5c.3-.1.6-.2.9-.2s.6-.1.9-.1c-.3.1-.6.2-.9.2-.3.1-.6.2-.9.1zm.1.7c.2 0 .3-.1.5-.1h.5c.3 0 .6.1.9.2-.3.1-.6 0-.9 0-.2 0-.3 0-.4-.1-.3.1-.5.1-.6 0zm-.2.6c.3 0 .6.1.9.1l.9.3c-.3 0-.6-.1-.9-.1-.3 0-.6-.1-.9-.3zm0 .7c.2 0 .3.1.4.1.1.1.3.1.4.2.3.1.5.3.7.5-.3-.1-.6-.2-.8-.3-.1-.1-.3-.1-.4-.2 0-.1-.2-.2-.3-.3zm-.5.8c.3.1.5.2.7.4.2.2.4.3.6.6-.3-.1-.5-.2-.7-.4l-.6-.6zm-.9-6.8c0 .3-.1.7-.2 1-.1.3-.2.6-.4.9 0-.3.1-.7.2-1 .1-.3.2-.7.4-.9zm-1.3 1.7c-.1-.3 0-.7 0-1 0-.3.1-.7.2-1 .1.3 0 .7 0 1s-.1.7-.2 1zm-1.1-2c.1.3.2.7.3 1 .1.3.1.7.1 1-.1-.3-.2-.6-.3-1 0-.2-.1-.3-.1-.5v-.5zm-1.1.4c.2.3.3.6.4.9.1.3.2.7.3 1-.2-.3-.3-.6-.4-.9-.2-.3-.3-.7-.3-1zm-.9.5c.2.2.5.5.7.8s.4.6.5.9c-.2-.2-.5-.5-.7-.8-.2-.3-.4-.5-.5-.9zm-1 .9c.3.2.7.4.9.7.3.2.6.5.8.8-.3-.2-.7-.4-.9-.7-.3-.3-.6-.5-.8-.8zm-.3 1c.3.1.5.2.8.3.2.1.5.3.7.5-.3-.1-.5-.2-.8-.3-.3-.1-.5-.3-.7-.5zm-.5 1c.3 0 .5 0 .8.1s.5.1.7.3c-.3 0-.5 0-.8-.1s-.4-.1-.7-.3zm-.2 1.2c.3-.1.6-.1.8-.1s.6 0 .8.1c-.3.1-.6.1-.8.1-.2 0-.5-.1-.8-.1zm.1.9c.2-.1.5-.2.8-.2.3-.1.5-.1.8-.1-.2.1-.5.2-.8.2-.2.1-.5.1-.8.1zm.1.9c.3-.2.6-.3.9-.3s.6-.2.9-.2c-.3.2-.6.3-.9.3-.3.1-.6.2-.9.2zm.5.9c.2-.2.5-.3.8-.5.3-.1.5-.2.8-.3-.2.2-.5.3-.8.5-.2.1-.5.2-.8.3zm.8.9c.1-.2.3-.4.5-.6.2-.2.4-.4.6-.5-.1.2-.3.4-.5.6-.2.2-.4.4-.6.5zm.9.8c.1-.3.2-.7.4-.9.2-.3.3-.6.6-.9-.1.3-.2.7-.4.9-.2.4-.4.7-.6.9zm1.1.4c0-.3 0-.5.1-.8.1-.3.2-.5.3-.8 0 .3 0 .5-.1.8 0 .3-.1.5-.3.8zm2.7-1.8c.2.2.2.5.3.7.1.3.2.5.2.8-.2-.2-.2-.5-.3-.7-.1-.2-.2-.5-.2-.8zm.7-.3c.2.2.4.4.5.6.2.2.3.4.4.7-.2-.2-.4-.4-.5-.6-.2-.2-.3-.4-.4-.7zm-1.5.6c.1.2.1.5.2.8v.8c-.1-.2-.1-.5-.2-.8v-.8zm-.7.1c.1.2.1.5.1.7 0 .3 0 .5-.1.8-.1-.3-.1-.5-.1-.8 0-.2.1-.5.1-.7z" fill="#36441a" stroke-width="none" opacity="1" stroke="none"></path><path id="SvgjsPath4935" d="M80.1 90.6c1.6 0 2.9 1.3 2.9 2.9s-1.3 2.9-2.9 2.9-2.9-1.3-2.9-2.9 1.2-2.9 2.9-2.9z" fill="#000000" stroke-width="none" opacity="1"></path><path id="SvgjsPath4936" d="m79.3 91.1-.6-.6c-.2-.2-.5-.3-.7-.3-.2 0-.6.1-.7.3-.2.2-.3.5-.3.8 0 .3.1.5.3.7l.6.6c.2.2.5.3.7.3.2 0 .6-.1.7-.3.4-.4.4-1.1 0-1.5zm2.8 5c.9 0 .9-1.5 0-1.5s-1 1.5 0 1.5z" fill="#ffffff" stroke-width="none" opacity="1"></path></g></g></g><g id="svga-group-eyesfront-left"><path id="SvgjsPath3454" d="M69.4 94.6c0 6.4 4.7 11.5 10.6 11.5 5.9 0 10.6-5.2 10.6-11.5S85.9 83.1 80 83.1c-5.8 0-10.6 5.1-10.6 11.5zm1.6-3.8s3.7-2.1 8.5-1.9c4.8.2 7.3 3 8.4 4.9 1.2 1.8 1.3 4.2 1.3 4.2s-2 .9-6.7 1c-4.7.1-7.6-1.9-9.3-3.3-1.7-1.4-2.2-4.9-2.2-4.9z" fill="#f0c7b1" stroke-width="none" opacity="1" stroke="none"></path><path id="SvgjsPath3455" d="M90.6 95.9c-2-3.6-4.1-6.6-8.3-7.9-4.3-1.4-8.1-.2-11.9 1.9-.2.1-.5-.2-.3-.4 6.3-5.7 18.8-2.3 20.6 6.3.1.2 0 .2-.1.1z" fill="#e1ac8f" stroke-width="none" opacity="1" stroke="none"></path><path id="SvgjsPath3456" d="M83.1 89.2c-4.8-2-10.6-.9-14.6 2.4-.5.4.1 1.1.6.8.5-.3 1-.6 1.6-.9 1.3 8.3 11.8 9.4 18.2 6.8.1.4.1.8.2 1.2 0 .3.5.4.6.1.7-4.5-2.5-8.7-6.6-10.4zm-4.6 8.9c-3.5-.9-6.2-3.4-6.7-7 0-.1 0-.1-.1-.1 3-1.5 6.2-2.3 9.7-1.3 4.2 1.2 6.7 4.2 7.5 8.2-3.6.2-6.9 1.2-10.4.2z" fill="#000000" stroke-width="none" opacity="1" stroke="none"></path></g></g></g><g id="svga-group-eyes-right-move" transform="matrix(1,0,0,1,0,0)"><g id="svga-group-eyes-right" transform="matrix(1,0,0,1,0,0)"><g id="svga-group-eyesback-right"><path id="SvgjsPath3447" d="M110.8 98s.1-2.4 1.3-4.2c1.2-1.8 3.7-4.7 8.4-4.9s8.5 1.9 8.5 1.9-.5 3.5-2.2 4.9c-1.7 1.4-4.6 3.5-9.3 3.3-4.8-.1-6.7-1-6.7-1z" fill="#ffffff" stroke-width="none" opacity="1"></path></g><g id="svga-group-eyesiriswrapper-right" transform="matrix(1,0,0,1,0,0)"><g id="svga-group-eyesiriscontrol-right" transform="matrix(1,0,0,1,0,0)"><g id="svga-group-eyesiris-right" transform="matrix(1,0,0,1,0,0)"><path id="SvgjsPath4937" d="M119.9 88.3c2.9 0 5.2 2.3 5.2 5.2s-2.3 5.2-5.2 5.2-5.2-2.3-5.2-5.2 2.4-5.2 5.2-5.2z" fill="#66724e" stroke-width="none" opacity="1" stroke="none"></path><path id="SvgjsPath4938" d="M119.9 88.6c2.7 0 4.9 2.2 4.9 4.9s-2.2 4.9-4.9 4.9-4.9-2.2-4.9-4.9 2.2-4.9 4.9-4.9m0-.5c-3 0-5.5 2.4-5.5 5.5 0 3 2.4 5.5 5.5 5.5 3 0 5.5-2.4 5.5-5.5s-2.4-5.5-5.5-5.5z" fill="#455328" stroke-width="none" opacity="1" stroke="none"></path><path id="SvgjsPath4939" d="M122.6 89c-.1.3-.3.7-.5 1-.2.3-.4.6-.7.9.1-.3.3-.7.5-1 .2-.4.4-.7.7-.9zm.7.6-.6.9c-.2.3-.5.6-.8.8l.6-.9c.3-.3.5-.6.8-.8zm-.9 2c.2-.3.4-.5.6-.7.2-.2.5-.4.8-.5-.2.3-.4.5-.6.7-.3.2-.5.4-.8.5zm.3.6c.3-.2.6-.3.9-.4.3-.1.6-.2 1-.3-.3.2-.6.3-.9.4-.4.2-.7.3-1 .3zm.3.5c.3-.1.6-.2.9-.2s.6-.1.9-.1c-.3.1-.6.2-.9.2-.3.1-.6.2-.9.1zm.1.7c.2 0 .3-.1.5-.1h.5c.3 0 .6.1.9.2-.3.1-.6 0-.9 0-.2 0-.3 0-.4-.1-.3.1-.5.1-.6 0zm-.2.6c.3 0 .6.1.9.1l.9.3c-.3 0-.6-.1-.9-.1-.3 0-.6-.1-.9-.3zm0 .7c.2 0 .3.1.4.1.1.1.3.1.4.2.3.1.5.3.7.5-.3-.1-.6-.2-.8-.3-.1-.1-.3-.1-.4-.2 0-.1-.2-.2-.3-.3zm-.5.8c.3.1.5.2.7.4.2.2.4.3.6.6-.3-.1-.5-.2-.7-.4l-.6-.6zm-.9-6.8c0 .3-.1.7-.2 1-.1.3-.2.6-.4.9 0-.3.1-.7.2-1 .1-.3.2-.7.4-.9zm-1.3 1.7c-.1-.3 0-.7 0-1 0-.3.1-.7.2-1 .1.3 0 .7 0 1s-.1.7-.2 1zm-1.1-2c.1.3.2.7.3 1 .1.3.1.7.1 1-.1-.3-.2-.6-.3-1 0-.2-.1-.3-.1-.5v-.5zm-1.1.4c.2.3.3.6.4.9.1.3.2.7.3 1-.2-.3-.3-.6-.4-.9-.2-.3-.3-.7-.3-1zm-.9.5c.2.2.5.5.7.8s.4.6.5.9c-.2-.2-.5-.5-.7-.8-.2-.3-.4-.5-.5-.9zm-1 .9c.3.2.7.4.9.7.3.2.6.5.8.8-.3-.2-.7-.4-.9-.7-.3-.3-.6-.5-.8-.8zm-.3 1c.3.1.5.2.8.3.2.1.5.3.7.5-.3-.1-.5-.2-.8-.3-.3-.1-.5-.3-.7-.5zm-.5 1c.3 0 .5 0 .8.1s.5.1.7.3c-.3 0-.5 0-.8-.1s-.4-.1-.7-.3zm-.2 1.2c.3-.1.6-.1.8-.1s.6 0 .8.1c-.3.1-.6.1-.8.1-.2 0-.5-.1-.8-.1zm.1.9c.2-.1.5-.2.8-.2.3-.1.5-.1.8-.1-.2.1-.5.2-.8.2-.2.1-.5.1-.8.1zm.1.9c.3-.2.6-.3.9-.3s.6-.2.9-.2c-.3.2-.6.3-.9.3-.3.1-.6.2-.9.2zm.5.9c.2-.2.5-.3.8-.5.3-.1.5-.2.8-.3-.2.2-.5.3-.8.5-.3.1-.5.2-.8.3zm.8.9c.1-.2.3-.4.5-.6.2-.2.4-.4.6-.5-.1.2-.3.4-.5.6-.2.2-.4.4-.6.5zm.9.8c.1-.3.2-.7.4-.9.2-.3.3-.6.6-.9-.1.3-.2.7-.4.9-.2.4-.4.7-.6.9zm1.1.4c0-.3 0-.5.1-.8.1-.3.2-.5.3-.8 0 .3 0 .5-.1.8-.1.3-.1.5-.3.8zm2.7-1.8c.2.2.2.5.3.7.1.3.2.5.2.8-.2-.2-.2-.5-.3-.7-.1-.2-.2-.5-.2-.8zm.7-.3c.2.2.4.4.5.6.2.2.3.4.4.7-.2-.2-.4-.4-.5-.6-.2-.2-.3-.4-.4-.7zm-1.5.6c.1.2.1.5.2.8v.8c-.1-.2-.1-.5-.2-.8v-.8zm-.7.1c.1.3.1.5.1.8 0 .3 0 .5-.1.8-.1-.3-.1-.5-.1-.8 0-.3.1-.6.1-.8z" fill="#36441a" stroke-width="none" opacity="1" stroke="none"></path><path id="SvgjsPath4940" d="M119.9 90.6c1.6 0 2.9 1.3 2.9 2.9s-1.3 2.9-2.9 2.9-2.9-1.3-2.9-2.9 1.3-2.9 2.9-2.9z" fill="#000000" stroke-width="none" opacity="1"></path><path id="SvgjsPath4941" d="m119.2 91.1-.6-.6c-.2-.2-.5-.3-.7-.3-.2 0-.6.1-.7.3-.2.2-.3.5-.3.7 0 .3.1.5.3.7l.6.6c.2.2.5.3.7.3.2 0 .6-.1.7-.3.4-.3.4-1 0-1.4zm2.7 5c.9 0 .9-1.5 0-1.5s-.9 1.5 0 1.5z" fill="#ffffff" stroke-width="none" opacity="1"></path></g></g></g><g id="svga-group-eyesfront-right"><path id="SvgjsPath3457" d="M120 83.1c-5.9 0-10.6 5.2-10.6 11.5s4.7 11.5 10.6 11.5c5.9 0 10.6-5.2 10.6-11.5s-4.8-11.5-10.6-11.5zm6.8 12.6c-1.7 1.4-4.6 3.5-9.3 3.3-4.7-.1-6.7-1-6.7-1s.1-2.4 1.3-4.2c1.2-1.8 3.7-4.7 8.4-4.9 4.8-.2 8.5 1.9 8.5 1.9s-.5 3.5-2.2 4.9z" fill="#f0c7b1" stroke-width="none" opacity="1" stroke="none"></path><path id="SvgjsPath3460" d="M109.4 95.9c2-3.6 4.1-6.6 8.3-7.9 4.3-1.4 8.1-.2 11.9 1.9.2.1.5-.2.3-.4-6.3-5.7-18.8-2.3-20.6 6.3-.1.2 0 .2.1.1z" fill="#e1ac8f" stroke-width="none" opacity="1" stroke="none"></path><path id="SvgjsPath3461" d="M131.5 91.6c-4-3.3-9.7-4.4-14.6-2.4-4 1.7-7.3 5.9-6.6 10.4.1.3.5.2.6-.1 0-.4.1-.8.2-1.2 6.5 2.6 17 1.4 18.2-6.8.5.3 1 .6 1.6.9.4.3 1-.5.6-.8zm-3.2-.5c-.5 3.6-3.3 6.1-6.7 7-3.6 1-6.9 0-10.4-.3.8-3.9 3.3-7 7.5-8.2 3.5-1 6.7-.1 9.7 1.3-.1.1-.1.2-.1.2z" fill="#000000" stroke-width="none" opacity="1" stroke="none"></path></g></g></g><g id="svga-group-facehighlight-single"></g><g id="svga-group-eyebrows-left-move" transform="matrix(1,0,0,1,0,0)"><g id="svga-group-eyebrows-left-rotate" transform="matrix(1,0,0,1,0,0)"><g id="svga-group-eyebrows-left" transform="matrix(1,0,0,1,0,0)"><path id="SvgjsPath3372" d="M67 82.5c.1-.3.3-.6.5-.8.1-.2.3-.5.5-.7.2-.2.4-.4.7-.6.5-.9 1.7-1.6 2.5-2.1.9-.5 1.8-.9 2.9-.9 1-.2 2.1-.2 2.9.2.4 0 .7.1 1 .3 1.1-.1 2.3.2 3.3.4 1.4.3 2.8.6 4.1 1.2 1.4 0 2.8.1 4.1.5h.2c.1 0 .2.1.2.1h.1c.1 0 .2.1.3.2.1.1 0 .3 0 .4v.1c0 .2 0 .4-.1.6 0 .6-.1 1.1-.5 1.6 0 .1 0 .2-.1.3-.1.5-.2 1.1-.7 1.4-.2.2-.5.3-.8.3-.1 0-.2 0-.3-.1h-.6c-.6.2-1.4 0-1.9-.1-.6-.1-1.2-.3-1.7-.6-1.8-.3-3.5-.8-5.3-1.2-1.6-.4-4-.4-5.4-1.3-.7.1-1.3.2-2 .2-.3 0-.7.1-1.1 0-.2 0-.5 0-.7-.2 0 0-.1 0-.1-.1h-.1l-.4.4c-.3.3-.7.7-1.2.8-.1.2-.3 0-.3-.3z" fill="#2a232b" stroke-width="none" opacity="1"></path><path id="SvgjsPath3373" d="M87.7 83c-.1-.6-.2-1.2-.4-1.7 0-.2.2-.3.3-.1.7 1 .9 2.8.2 3.9-.1.2-.3.1-.3-.1.1-.8.2-1.4.2-2zm-3.4-3.2c1.3.8 2.1 2.6 2.1 4 0 .2-.3.3-.3.1-.2-.7-.4-1.3-.7-1.9-.3-.7-.9-1.2-1.3-1.9-.3-.2 0-.4.2-.3zm-3.3-.7c2.2.8 3.8 3.2 4.2 5.3 0 .2-.2.2-.3.1-.4-1-.9-2-1.7-2.8-.7-.9-1.6-1.4-2.5-2.2-.2-.1.1-.5.3-.4zm-4.9-.8c2.4.6 4.8 2.6 5.8 4.7.1.2-.3.4-.4.2-.8-1-1.6-1.9-2.6-2.7-.9-.7-2-1.2-3-1.8-.2-.1-.1-.4.2-.4zM67.4 82c1.6-1.8 3.8-4.3 6.5-4 .2 0 .2.3 0 .3-2.6.2-4.3 2.5-6.3 3.9-.2.1-.4-.1-.2-.2z" fill="#3a353a" stroke-width="none" opacity="1"></path><path id="SvgjsPath3374" d="M90.9 80.6c-.1-.3-.5-.3-.6 0-.3 1.1-.3 2.4-1.2 3.3-.6.7-1.5.8-2.4.7.3-1.5.2-3.7-.8-4.9-.2-.2-.5-.1-.4.2 0 .8.4 1.6.5 2.4.1.8.2 1.5.2 2.3-.1 0-.2 0-.3-.1-.3-2-1.3-4.1-2.8-5.5 2.3.5 4.6.9 6.9 1.1.1 0 .2-.2.1-.2-2.6-.9-5.3-1.4-8-2-2.4-.5-5.1-1.4-7.6-1.5-2.1-.1-3.6.9-5 2.2-1.5 1.4-3.1 3.1-4.1 4.9l-.2.2c-.1.1-.2.3-.1.4 0 0 0 .1-.1.1-.2.4.3.7.6.4.1 0 .2 0 .3-.1 1.4-.7 2.5-1.4 4.1-1.6 1.3-.2 2.7-.1 4 .1 2.9.4 5.6 1.3 8.3 2.1 2.1.6 4.9 1.7 6.9.2 1.7-1 1.9-3.1 1.7-4.7zm-13.4 1.3c-.5-.1-1.1-.2-1.7-.3.1-1.1-.3-2.3-.8-3.3.7.6 1.4 1.2 2 1.9.6.6.9 1.4 1.5 2-.4-.1-.7-.2-1-.3zM70 79.5c1.2-1.1 2.5-1.7 4-1.9.2.8.6 1.6.7 2.4l.3 1.5c-.3 0-.7-.1-1-.1-.5-.9-1.3-1.8-2.3-2.1-.2-.1-.3.2-.2.4.4.4.9.8 1.3 1.2.1.2.2.3.4.5-1.9-.1-3.8.1-5.4.8.6-1 1.3-1.9 2.2-2.7zm15.2 4.8c-.2-.1-.4-.1-.6-.2-.4-.1-.9-.3-1.3-.4-.8-1.8-2.1-3.6-3.7-4.8-.2-.1-.4.1-.3.2 1.2 1.4 2.2 2.9 3.3 4.4-1.1-.4-2.2-.7-3.2-1.1-.2-1.1-1.2-2.2-1.9-3-.7-.7-1.5-1.4-2.4-1.9.4 0 .8.1 1.3.1 2 .3 4 .8 6 1.2v.1c.7 1.1 1.5 2.2 2.1 3.3.2.7.4 1.4.7 2.1z" fill="#1b141c" stroke-width="none" opacity="1"></path></g></g></g><g id="svga-group-eyebrows-right-move" transform="matrix(1,0,0,1,0,0)"><g id="svga-group-eyebrows-right-rotate" transform="matrix(1,0,0,1,0,0)"><g id="svga-group-eyebrows-right" transform="matrix(1,0,0,1,0,0)"><path id="SvgjsPath3375" d="M133 82.5c-.1-.3-.3-.6-.5-.8-.1-.2-.3-.5-.5-.7-.2-.2-.4-.4-.7-.6-.5-.9-1.7-1.6-2.5-2.1-.9-.5-1.8-.9-2.9-.9-1-.2-2.1-.2-2.9.2-.4 0-.7.1-1 .3-1.1-.1-2.3.2-3.3.4-1.4.3-2.8.6-4.1 1.2-1.4 0-2.8.1-4.1.5h-.2c-.1 0-.2.1-.2.1h-.1c-.1 0-.2.1-.3.2-.1.1 0 .3 0 .4v.1c0 .2 0 .4.1.6 0 .6.1 1.1.5 1.6 0 .1 0 .2.1.3.1.5.2 1.1.7 1.4.2.2.5.3.8.3.1 0 .2 0 .3-.1h.6c.6.2 1.4 0 1.9-.1.6-.1 1.2-.3 1.7-.6 1.8-.3 3.5-.8 5.3-1.2 1.6-.4 4-.4 5.4-1.3.7.1 1.4.2 2 .2.3 0 .7.1 1.1 0 .2 0 .5 0 .7-.2 0 0 .1 0 .1-.1h.1l.4.4c.3.3.7.7 1.2.8.1.2.3 0 .3-.3z" fill="#2a232b" stroke-width="none" opacity="1"></path><path id="SvgjsPath3376" d="M112.3 83c.1-.6.2-1.2.4-1.7 0-.2-.2-.3-.3-.1-.7 1-.9 2.8-.2 3.9.1.2.3.1.3-.1-.1-.8-.2-1.4-.2-2zm3.4-3.2c-1.3.8-2.1 2.6-2.1 4 0 .2.3.3.3.1.2-.7.4-1.3.7-1.9.3-.7.9-1.2 1.3-1.9.3-.2 0-.4-.2-.3zm3.3-.7c-2.2.8-3.8 3.2-4.2 5.3 0 .2.2.2.3.1.4-1 .9-2 1.7-2.8.7-.9 1.6-1.4 2.5-2.2.2-.1-.1-.5-.3-.4zm4.9-.8c-2.4.6-4.8 2.6-5.8 4.7-.1.2.3.4.4.2.8-1 1.6-1.9 2.6-2.7.9-.7 2-1.2 3-1.8.2-.1.1-.4-.2-.4zm8.7 3.7c-1.6-1.8-3.8-4.3-6.5-4-.2 0-.2.3 0 .3 2.6.2 4.3 2.5 6.3 3.9.2.1.4-.1.2-.2z" fill="#3a353a" stroke-width="none" opacity="1"></path><path id="SvgjsPath3377" d="M110.6 85.3c2 1.5 4.8.4 6.9-.2 2.8-.8 5.5-1.8 8.3-2.1 1.3-.2 2.7-.3 4-.1 1.6.2 2.7.9 4.1 1.6.1.1.2.1.3.1.3.3.8 0 .6-.4 0 0 0-.1-.1-.1 0-.1 0-.3-.1-.4l-.2-.2c-1-1.8-2.6-3.5-4.1-4.9-1.4-1.3-2.9-2.3-5-2.2-2.5.1-5.2 1-7.6 1.5-2.7.6-5.4 1.1-8 2-.2.1-.1.2.1.2 2.3-.2 4.6-.6 6.9-1.1-1.5 1.4-2.5 3.5-2.8 5.5-.1 0-.2 0-.3.1.1-.8.1-1.5.2-2.3.1-.8.5-1.6.5-2.4 0-.2-.3-.3-.4-.2-1 1.2-1.1 3.4-.8 4.9-.9.1-1.7 0-2.4-.7-.8-.9-.9-2.2-1.2-3.4-.1-.3-.5-.3-.6 0 0 1.7.2 3.8 1.7 4.8zm10.9-3.2c.5-.6.9-1.4 1.5-2 .6-.7 1.3-1.3 2-1.9-.5 1-.9 2.3-.8 3.3-.6.1-1.2.2-1.7.3-.3.2-.6.3-1 .3zm10.8 0c-1.6-.7-3.6-.9-5.4-.8.1-.2.2-.3.4-.5.4-.5.9-.8 1.3-1.2.1-.1.1-.4-.2-.4-1 .3-1.8 1.2-2.3 2.1-.3 0-.7.1-1 .1l.3-1.5c.2-.8.5-1.6.7-2.4 1.4.2 2.7.8 4 1.9.8.9 1.5 1.8 2.2 2.7zm-16.7.2c.6-1.2 1.4-2.2 2.1-3.3v-.1c2-.4 4-.9 6-1.2.4-.1.9-.1 1.3-.1-.9.5-1.7 1.2-2.4 1.9-.7.8-1.7 1.9-1.9 3-1.1.3-2.2.7-3.2 1.1 1-1.5 2.1-2.9 3.3-4.4.1-.2-.1-.3-.3-.2-1.6 1.2-2.9 3-3.7 4.8-.4.1-.9.3-1.3.4-.2.1-.4.1-.6.2.2-.8.4-1.5.7-2.1z" fill="#1b141c" stroke-width="none" opacity="1"></path></g></g></g><g id="svga-group-beardwrap" transform="matrix(1,0,0,1,0,0)"><g id="svga-group-beard-single-move" transform="matrix(1,0,0,1,0,0)"><g id="svga-group-beard-single" transform="matrix(1,0,0,1,0,0)"></g></g></g><g id="svga-group-mustache-single-move" transform="matrix(1,0,0,1,0,0)"><g id="svga-group-mustache-single" transform="matrix(1,0,0,1,0,0)"></g></g><g id="svga-group-nose-single-move" transform="matrix(1,0,0,1,0,0)"><g id="svga-group-nose-single" transform="matrix(1,0,0,1,0,2)"><path id="SvgjsPath3582" d="M105.06 106.65c.56.92 2.64 3.61 3.09 4.9.45 1.29-.13 3.22-1.48 3.61s-3.61-.39-3.93-.19c-.32.19-1.87 2.06-2.58 1.93-.71-.13-2.64-2.13-3.03-2.13-.39 0-2.13.45-2.97.45-.84 0-2.9-.71-2.64-2.51.26-1.81 2.45-5.54 2.9-6.06.45-.52 1.48-2.32 1.74-3.42s.58-7.03.71-8.38c.13-1.35 1.35-2.97 2.58-3.09 1.23-.13 3.35.77 3.55 2.9.19 2.13.58 6.38.77 8.12.19 1.74.58 2.71 1.29 3.87z" fill="#f0c7b1" stroke-width="none" opacity="1" stroke="none"></path><path id="SvgjsPath3583" d="M97.62 85.76c-.84 3.5-.96 7.24-1.34 10.81-.4 3.83-1.14 7.78-1.09 11.63 0 .31.48.39.55.07.78-3.52.88-7.26 1.24-10.84.39-3.82 1.1-7.79.98-11.63 0-.18-.29-.24-.34-.04z" fill="#c27b55" stroke-width="none" opacity="1" stroke="none"></path><path id="SvgjsPath3584" d="M94.46 106.19c-1.03 1.37-1.9 2.87-2.65 4.41-.49 1-1.09 2.17-.77 3.32.53 1.89 2.93 2.49 4.5 1.58.47-.27.26-.99-.27-1-.92-.01-1.98.28-2.72-.5-.88-.94-.01-2.63.38-3.57.58-1.39 1.28-2.72 1.83-4.12.07-.19-.2-.26-.3-.12z" fill="#c27b55" stroke-width="none" opacity="1" stroke="none"></path><path id="SvgjsPath3585" d="M94.31 113.98c2.84-.21 3.38 3.37 6.07 3.45 2.31.07 2.5-3.41 4.69-3.3.26.01.34-.35.13-.47-2.49-1.47-2.95 2.86-5.24 2.59-1.36-.16-2.32-2.16-3.54-2.73-.83-.39-1.43-.36-2.23.02-.22.09-.11.46.12.44z" fill="#c27b55" stroke-width="none" opacity="1" stroke="none"></path><path id="SvgjsPath3586" d="M104.29 115.6c1.87.42 4.05-.16 4.49-2.24.22-1.04-.13-2.07-.67-2.95-.89-1.44-2.03-2.66-2.87-4.15-.14-.25-.49-.12-.51.14-.11 1.67 1.13 2.83 2.02 4.12.82 1.19 1.53 2.83.15 4-.63.54-1.83.44-2.6.59-.26.04-.25.43-.01.49z" fill="#c27b55" stroke-width="none" opacity="1" stroke="none"></path><path id="SvgjsPath3587" d="M102.45 109.98c-.41-.74-1.47-.85-2.06-.26-.05.05-.24.29-.3.36-.07.09-.2.26-.23.29-.07.1-.12.21-.18.32l-.12.28c0-.01-.01.01-.03.05-.06.06-.12.13-.18.2-.18.19-.36.38-.5.6-.42.67-.08 1.42.48 1.84.87.65 2.13.13 2.74-.61.76-.89.96-2.03.38-3.07z" fill="#f8d5c3" stroke-width="none" opacity="1" stroke="none"></path></g></g><g id="svga-group-hair-front" transform="matrix(1,0,0,1,0,0)"><path id="SvgjsPath6473" d="M95.5 46.3s-.9 4.4 4.2 5 7.8 7.1 3.6 9.4c0 0 6.7-1 6.7-9.4 0 0 3.3 6.9 8.4 5.6 5.1-1.3 6.5 0 6.5 0s-3.1 1.7-.9 6.9 8.5.7 8.5.7 5.8 5.8 1.4 9.1c0 0 1.1-.2 2.5-1.6 0 0-3.4 5.6-1.8 10.1 1.6 4.4 3.6 3.2 3.1 5.2-.6 1.9-4.7 2.7-3.6 5.4s4.4 3.6 4.4 5.2.4 4-1.6 4.8c0 0 3.3.2 4.2-3.8.9-4 0-5-.2-6.9-.2-1.9 3.3-6.6 5.3-6.6s7.3-3.7 6.4-6.7-2.2-3.5-3.3-6.6 2.9-6.4 4.4-5.2c0 0-3.6-5.4-6.9-2.7 0 0-1.3-.4.4-2.7 1.6-2.3.7-9.4-2.7-10.4s-2.7-4.6-4.2-7.9c-1.4-3.3-6.4-3.7-6.4-3.7s1.4-4.6-2-6.9-7.4 1-8.9-.8-.4-3.9-.4-3.9-3.1.2-3.4 1.5c0 0-1.4-1.4-3.1-4.2s-7.6-3.9-11.4-1c0 0-1.6-4-5.8-4s-6.7 1.7-7.4 4c0 0 4.2-3.7 6.4.8s-5.8 2.9-5.4.6c0 0-1.4 2.9-3.3 2.5S87.8 26 86 25.4c-1.8-.6-4.2.2-5.1 2.5s-4.5 5.2-5.8 3.1c-1.3-2.1.9-3.5.9-3.5s-4.4 1.2-4.4 4.4c0 0-4-1.5-6.2 1.4s-.7 6.5-2.4 6.5-2.9-2.3-4.4.6c-1.5 2.9.5 3.8-.9 4.6s-4.4 1.7-4.4 5c0 0-7.8 4-5.5 8.9s5.5 5.4 3.5 7.9-4 0-4.7 2.9c-.7 2.9.9 2.7 0 4.4s-3.5 2.3-4.2 1c0 0 1.3 2.1 2.5 2.5 1.3.4 4.9-2.5 4.9-2.5s-3.5 2.5-3.3 6-.4 5.6 2 5.8 4.2-2.7 6-1.2c1.8 1.5-.7 1 1.5 4.4s3.1 5 2 6.7c-1.1 1.7.2 3.8 1.6 4.2 0 0-1.1-2.3 0-3.7s2.7-3.8 1.5-6.7-2.9-6.8-1.6-9.3 2.5-4.4 2-6.7-.5-.6 0-.8c.5-.2 2.5 2.1 2 5 0 0 2.7-5.4 1.8-8.1-.9-2.7 0-7.1 2-6.2 2 1 5.1 2.4 6.5.5s1.8-5 1.8-5 3.6 2.3.6 5.8c-3.1 3.5.9 7.7.9 7.7s-1.8-2.9 0-5.4 5.4-4.2 4.7-6.9c-.7-2.7-1.4-4.2-1.4-4.2s1.4-4.2 3.8-2.1-.9 5.4-.9 5.4 4.4-.4 5.4-3.7.6-3.7 1.3-6.2c.9-2.3 2.9 1.3 5.5-4.1z" fill="#2a232b" stroke-width="none" opacity="1"></path><path id="SvgjsPath6474" d="M104.6 52.2c-1.2-.8-2.5-1.2-4-1.4-4.7-.8-4.7-4.5-2.6-7.8.1-.2-.2-.4-.3-.3-1.6 1.7-2.7 4.6-1.5 6.9C98 53 107 51 105.6 56.4c-.1.2.3.5.5.3 1.2-1.7.1-3.4-1.5-4.5zM90.8 35c-2.2-.8-4.4-.6-6.5.4-1.7.9-2.7 2.2-4.7 2.6-4.9 1.1-9.1-2.7-6.5-8.1.1-.2-.2-.3-.3-.2-1.9 3.1-1.6 7.3 2.1 8.9 1.6.7 4 .8 5.6.2 1.5-.5 2.3-1.7 3.6-2.5 2.1-1.2 4.2-1.2 6.5-.9.4.1.5-.3.2-.4zm-3.9 5.9c-1.6 1-3 2.3-4.9 2.7-1.6.3-3.2-.2-4.7.6-1.7.8-2.8 2.6-2.6 4.5.2 2.1 1.8 4 4 4.1 1.9.1 3.4-1.3 3.4-3.2 0-.1-.2-.2-.3 0-.8 4.6-7 1.8-6.1-2.1.6-2.8 3.2-2.8 5.5-2.8 2.5-.1 4.5-1.5 6.2-3.3.1-.3-.2-.7-.5-.5zm32.2-9c-3.2-1-3.8-6.4-7.9-5-1.2.4-2.1 1.5-2.9 2.5-1.9 2.7-2.8 5-6.4 5.7-.2 0-.2.4.1.3 2.9-.1 4.6-1.5 6.1-3.9.6-.9 1.1-2.2 1.9-2.8 3.9-3 4.7.3 6.4 2.1.9.9 1.4 1.3 2.6 1.6.3.1.4-.4.1-.5zm4.5 23c-2.3-.1-4.4.9-6.7.5-3.9-.6-6.5-3.5-6.4-7.5 0-.2-.3-.3-.4 0-.6 2.9.6 5.5 3.1 7.2 1.4.9 3 1.4 4.7 1.5 2.9.2 7.1-2.1 8.7 1.7.1.2.4.1.4-.1.5-2.1-1.4-3.2-3.4-3.3zm27.6 21.4c-.4-.9-.9-1.6-1.5-2.2-1.1-1.2-2.7-2.1-1.6-4.5.4-1 1.7-1.8 2.4-2.5.2-.2-.1-.5-.3-.4-1.8 1-3.8 2.4-3.5 4.8.1.9.6 1.5 1.2 2.2 1.9 2.3 3.6 4.1 1.6 7.2-.2.3.2.6.4.4 1.7-1.1 2.1-3 1.3-5zm-6.1-1.5c-.3-2.6-1.9-4.5-4.2-5.5-.2-.1-.4.2-.2.3 2.4 1.6 4.1 4.3 3.5 7.3-.5 2.2-2.2 3.1-3.3 4.8-.8 1.3-.9 2.6.4 3.5.3.2.7-.2.5-.5-1.2-1.6 2.4-4.9 3-6.5.4-1 .5-2.2.3-3.4zm-25.5-38.5c-1.5 0-3.5 1.3-2.5 2.9.1.1.3.1.3 0 .7-2.1 2.7-2.3 4.3-1 2 1.6.3 3.7-1.2 4.6-2.4 1.5-5 1.3-7.3-.4-.3-.2-.5.2-.3.4 2.7 3.3 10.8 1.8 10.7-3.1 0-2-2.1-3.4-4-3.4zm-41 27.9c.1-.8-.1-1.6-.5-2.3-.6-1.2-3-3-2.9-4 0-.2-.3-.3-.4-.1-.3.9-.2 1.3.3 2 .8 1.3 1.9 1.1 2.5 3 .5 1.8-.7 2.9-1.5 4.3-.9 1.7-1.6 3.6.2 5 .2.2.6-.1.4-.3-2-3 1.7-4.8 1.9-7.6zm6.6-8.6c-.6-1.3-2.3-2.7-3.8-2.2-.2.1-.3.4-.1.5 1.1.5 2.2.6 2.9 1.8.8 1.3.5 2.7-.2 3.9-.2.2.2.5.4.3 1.2-1.2 1.4-2.9.8-4.3zm-11.6-7.5c0-.2-.3-.3-.3-.1-.8 2.2.2 4 1.9 5.5 1.1 1 2.4 1.7 3.5 2.6 1.6 1.3 2.1 2.7 2.5 4.7.1.2.4.2.5 0 1.2-6.2-8.9-6.5-8.1-12.7zm-.2 16.4c-3.4 3-8.8-1.4-9.4-5.1 0-.2-.4-.2-.4.1-.1 2.7 2.1 4.8 4.3 6.1 1.8 1.1 4.8 1.7 6-.7 0-.3-.3-.6-.5-.4zm-9 10.9c-.6-1-1.9-1.6-2.5-2.6-1.1-1.8-1.3-3.9-.8-5.9 0-.2-.2-.3-.3-.1-1 2.4-.8 5 .9 7.1 1.6 2 2.3 1.2 1.5 5.1-.3 1.3-.7 1.7.1 3 .1.2.6.1.5-.2-1-2.2 1.9-4.1.6-6.4zM52 63.7c-1.2-1.7-2.4-2.5-2.8-4.7-.4-2.3.2-4.5 1.7-6.3.2-.3-.2-.7-.4-.4-1.6 1.8-2.5 4-2.2 6.4.1 1 .3 2 .8 2.9 1 2 3.5 3.2 2.9 5.7 0 .2.2.4.4.2 1.1-1.2.6-2.5-.4-3.8zm-3.8 4.7c-1.2.7-1.9 1.6-2.1 3-.2.8-.1 1.6-.1 2.3 0 1.7-1.1 2.2-2.6 2.1-.2 0-.4.3-.2.5 1.1.9 2.7.4 3.4-.8.5-.9.3-1.8.3-2.8 0-1.4.3-3 1.5-3.9.3-.1.1-.5-.2-.4zm4.8 16c-.8.5-2.1 1.4-3.1 1.1-1.9-.4-1.9-2-2-3.6 0-2.7.8-4.9 3.3-6.1.3-.1.1-.5-.2-.5-3.9.6-4.7 5.7-4.1 8.9.6 3.3 5 3.1 6.5.6.2-.2-.2-.5-.4-.4zm6.5 15.4c-.9-2-.1-3.8 0-5.7 0-.8.1-1.2-.3-1.8-.4-.7-1.2-1.1-1.8-1.6-2-1.4-2.1-3.6-1.9-5.9 0-.3-.5-.4-.6-.1-.8 2.8-.5 4.2 1.2 6.4 1.1 1.5 1.8-.2 1.6 4.1 0 .6-.3.9-.3 1.5 0 1.4.8 2.4 1.8 3.3.1.1.3 0 .3-.2zm1.7-51.1c.2-.1 0-.4-.2-.3-2.2.8-5.4 3.2-4.7 5.9.1.6.6.9.8 1.4 1.3 2.9.8 2.4-.5 4.3-1 1.5-1.4 2.8-1.3 4.6 0 .4.6.5.7.1.3-1.8 1.1-3.2 2.2-4.7.6-.8 1.2-1.6 1.1-2.7-.1-.8-.7-1.2-1-1.9-1.7-3.7.9-5 2.9-6.7zM70.4 32c-2.4-.9-4.7.7-5.6 2.9-.5 1.2-.6 2.5-.5 3.8.1.8.2 1.5.3 2.2.4 1.3-.1 2.4-1.6 3.1-.5-.1-1-.2-1.6-.3-.3-.1-.5.4-.2.5 1.6 1.1 3.7.6 4.2-1.4.3-1.5-.5-3.3-.5-4.8 0-3.2 1.9-5.9 5.3-5.5.4 0 .4-.4.2-.5zm27.7-6.9c-1.2-2.7-4.7-3.7-6.9-1.7-.2.2.1.5.3.4 1.9-.9 4.3-.7 5.4 1.2 1.1 1.8.4 4.6-2 4.8-.3 0-.3.4-.1.5 1.2.5 2.3-.1 3-1.2.9-1.2.9-2.7.3-4zm6.9 13.4c-.2-.2-.5.1-.3.3 1 1.4-.5 2.9-1.7 3.2-1.2.3-2.4 0-3.4-.8-1.7-1.4-2-3.8-1.9-5.9 0-.3-.4-.3-.5-.1-.6 3.2.6 7.3 4.3 7.7 2.2.4 5.9-2.2 3.5-4.4zm32.1 13.1c-1-.7-2.1-.9-3.2-.7-1.5.2-2.6.7-4.1.3-2.3-.6-3.3-2.5-3.6-4.8 0-.2-.4-.3-.4 0-.5 2.5.9 4.8 3.2 5.6 1.1.4 2.1.3 3.2.1 1.1-.2 1.9-.7 3.1-.4 2.3.5 3 3.1 1.3 4.8-.4.3.2.8.5.5 2-1.4 1.8-4.1 0-5.4zm-3.3 9.3c0-.3-.5-.4-.6-.1-.7 2.3-2.3 4.6-5 4.5-3.2-.1-4.5-3.1-4.2-5.9 0-.2-.3-.3-.4-.1-1.4 3 .8 6.4 3.9 7 3.2.6 6.6-2.1 6.3-5.4zm-.3 3.5c-.2-.2-.5.1-.3.3 1.3 1.9 3.5 6.5.5 8-.3.1-.1.6.2.6 1.6-.1 2.1-1.7 2.1-3.1-.1-2.3-1-4.2-2.5-5.8zm7.1 21.8c-2.6.8-4.2-2.8-4.8-4.6-.5-1.8-.6-3.7-.3-5.5.1-.3-.4-.5-.5-.1-.8 2.7-.5 5.6.8 8.1.9 1.7 2.9 4.4 5.1 2.9.3-.4.2-1-.3-.8zm.1 4.8c-.1-.2-.4-.2-.4.1.1 2.3.8 4.6.2 6.9-.7 2.9-3 4.7-6.1 4-.4-.1-.7.5-.3.7 2.2 1.3 4.9.1 6.2-1.9 2-2.8 1.5-6.7.4-9.8zm7-34.3c-.5-1.9-1.8-3.2-3.6-3.9-.3-.1-.4.3-.2.5 3 2.1 3.8 5.1 2.1 8.4-.4.8-1.1 2.1-.1 2.6.2.1.4 0 .4-.2V64c0-.1 0-.2-.1-.2-.3-.1 1.4-3.3 1.5-3.8.3-1.1.3-2.3 0-3.3zm-10.5-13.6c-.8-2.1-3.4-4.2-5.6-2.5-.2.1 0 .4.2.3 1.8-.5 3.4.4 4.3 2.1.6 1.2.4 2.5-1 2.9-.7.2-1.7.2-2.4.2-.3 0-.3.4-.1.5 2.5 1 5.8-.5 4.6-3.5zM69.9 54.2c-1.1 2.2-4.1 1.4-4.8-.7-.6-1.9.6-3.8 2.3-4.5.4-.2.1-.9-.3-.8-2.9.7-4.3 4.6-2.4 7 .8 1.1 2.2 1.8 3.6 1.6 1.2-.2 2.4-1 2.2-2.3 0-.4-.4-.6-.6-.3z" fill="#1b141c" stroke-width="none" opacity="1"></path><path id="SvgjsPath6475" d="M121.1 52.6c-3.8 2.5-7.3-2.7-8.1-5.8-.1-.5-.8-.2-.7.2.4 2.4 1.6 4.7 3.6 6.1 1.7 1.3 3.9 1.7 5.6 0 .3-.2-.1-.7-.4-.5zm1.2-18c-.5-.2-.8.4-.4.7.9.6 1.7 1.4 2.3 2.3.1.1.1.3.2.4-1.7-2.6-5.3-4.5-8-1.3-.2.2.1.5.3.3 1.8-1.6 4.5-1.2 6.1.4 1.3 1.3 2.6 3.8.9 5.4-.2.2 0 .6.3.5 1.1-.5 1.5-1.4 1.4-2.5.2.1.4 0 .4-.2.5-2.5-1.4-5-3.5-6zm10 .9c-.5-1.7-2.1-2.7-3.8-2.4-.3.1-.2.6.1.5 1.6-.2 3 1.1 3.1 2.7.1 1.5-.9 2.5-1.8 3.6-.2.2.1.6.3.4 1.6-.8 2.6-2.9 2.1-4.8zm5.3 7.5c-.2-.1-.5.2-.2.4 1.1.7 1.7 2 1.8 3.3 0 1.1-.5 2.1-.6 3.2 0 .3.4.4.6.2 1.5-2.1 1-5.9-1.6-7.1zm-4.7 9.8c-1.2-.2-2.4.2-3.5 0-1.3-.3-2.4-1.3-3.2-2.3-.2-.2-.5.1-.3.3.8 1.1 1.6 2.1 2.9 2.6 1.8.7 5.2-.7 5.9 1.8.1.3.5.2.5-.1 0-1.3-1.2-2.1-2.3-2.3zm-.3 7.4c-1.2 1.3-2.6 2.7-4.5 2.8-1.8.1-3.5-1.1-3.8-2.9 0-.2-.4-.2-.4 0 .1 1.9 1.4 3.3 3.3 3.6 2.4.4 4.7-1.3 5.7-3.3.2-.1-.1-.4-.3-.2zm7.2 9.9c-.3-.1-.5.3-.2.5 6.9 3.6-6.5 12.3.1 16.5.2.2.6-.2.4-.4-3.1-4.3 1.8-7.5 2.4-11.7.3-2.3-.5-4.2-2.7-4.9zm7.9-4.8c-2.1.6-4 3.5-2.6 5.6.1.2.6.2.6-.2-.1-1-.2-1.9.2-2.9.4-.9 1.1-1.7 2-2.1.3-.1.1-.5-.2-.4zm-5.8-11.4c-.2-.2-.4 0-.3.3 1.2 2.3 3 4.8 1.4 7.4-.2.3.3.5.5.3 1.8-2.7.2-5.9-1.6-8zm-1.4 1.3c-.2-.1-.4.1-.2.3 1.1.9 1.8 2.2 1.8 3.7 0 .2.3.2.4 0 0-1.6-.7-3.2-2-4zm-37.9-14.9c-.8-.3-1.5-.6-2.1-1.3-.6-.7-.8-1.6-.7-2.5.1-.4-.5-.6-.6-.2-.5 2 .9 4.8 3.3 4.5.3-.1.4-.4.1-.5zm7.3-15.7c-2.3-.9-4.8.8-5.8 2.9-.1.3.3.5.4.3 1.2-1.9 3.1-2.6 5.2-2.7.4 0 .5-.4.2-.5zM129 37.8c-.7-1.5-2-3-3.7-3.4-.2 0-.3.2-.1.3 1.5.8 2.8 1.7 3.6 3.2.1.2.3.1.2-.1zm-15.1-7.5c-.5-1-1.8-1-2.6-.3-.6.6-.9 1.5-1.3 2.2-.6 1-1.2 1.9-1.9 2.9-.2.2.2.5.4.3.9-.8 1.6-1.8 2.2-2.8.3-.5.5-.9.7-1.4.3-.6 1.5-2.1 2.2-.8.1.3.3.1.3-.1zm-9.5 20c-1.2-.5-2.5-.6-3.5-1.4-1.3-1-1.8-2.6-1.4-4.2.1-.3-.4-.5-.5-.1-.6 1.6-.4 3.4.9 4.7 1.9 1.9 5.8 1.2 6.7 4.2.1.2.4.2.4-.1 0-1.5-1.2-2.5-2.6-3.1zM95 43c-.6 3-4.6 3.2-6.4 5.3-.1.2 0 .4.2.3 2.3-1.6 6-2.2 6.6-5.4 0-.3-.4-.5-.4-.2zm-9.8 6c-1-.4-1.9-.7-2.9-1-.4-.1-1.2-.3-1.4-.6 0-.3-.1-.7-.1-1 .1-.2.2-.4.4-.5l.5-.5c.2-.2-.1-.5-.3-.3-.8.6-2.1 1.8-1.1 2.9.4.5 1.2.7 1.7.9 1 .3 2 .6 3 .7.4-.1.5-.5.2-.6zm2.8 3.8c-.1-.2-.4-.2-.4 0-.1 1.7-.1 3.2-.8 4.8-.1.3.3.5.4.2.7-1.4 1.2-3.3.8-5zm-14.4-.3c-.2-.5-.8-.3-.7.2 1.1 4.4 7.8 5.9 7.1 10.8 0 .3.4.4.5.1 1.6-5.1-5.7-7-6.9-11.1zm.5 8.1c-.1-.2-.4-.1-.4.1 0 1.8-1.2 3.7-3.2 3.6-.2 0-.3.3-.1.4 1.2.2 2.2-.2 3-1 .7-.9 1.2-2.1.7-3.1zm-4 .5c-2 .5-3.8.4-5.7-.7-.2-.1-.4.2-.2.3 1.6 1.5 4.2 2 6.1.9.3-.2.1-.6-.2-.5zm14.2-23.6c-2.9 1.9-6.1 2.6-9.4 1.3-.3-.1-.5.4-.2.5 3.3 1.5 7.3 1.1 9.9-1.5.2-.1 0-.4-.3-.3zm-.6-4.2c-1.4.6-2.8.8-4.2 0-.3-.2-.6.3-.3.5 1.4.9 3.4 1.1 4.8-.1.1-.2-.1-.5-.3-.4zm37 17.9c-2.5-.5-4.8-1.6-6.1-4-.1-.2-.4-.1-.4.2 1 2.5 3.5 4.7 6.4 4.3.2-.1.3-.5.1-.5zm.9-2.3c-.5.2-.9.4-1.4.4-.5 0-1-.3-1.3-.7-.2-.2-.6.1-.4.3.8 1 2.7 1.5 3.5.2 0-.1-.2-.3-.4-.2zm19.5 8.8c-.2-.3-.6 0-.5.3.6 1.4.9 2.8 1.2 4.4 0 .2.4.2.5 0 .3-1.7-.3-3.4-1.2-4.7zM52.5 62c-.5-.8-1.2-1.6-1.5-2.4-1.1-2.4-.3-3.7 1-5.4.2-.3-.2-.6-.5-.4-1.3 1.5-2.4 3-1.8 5 .3 1.1 1 2 1.6 2.9 1 1.6 1.6 3.2 2 5 .1.3.5.2.5-.1 0-1.6-.5-3.1-1.3-4.6zm1.7 20.8c-1 .3-2.5.9-3.3-.2-.5-.6-.5-1.6-.4-2.3.2-1.7 1.2-3.2 2.3-4.3.3-.3-.2-.8-.5-.5-1.8 1.6-3.3 4-2.8 6.5.5 2.6 3 2.8 4.9 1.4.2-.2.1-.7-.2-.6zm5.6 6.7c-1.7-1.2-3.3-2.4-2.5-4.7.1-.2-.3-.4-.4-.2-.5 1.2-.6 2.5 0 3.6 1 1.7 3.2 2 4 3.9.1.2.5.2.5-.1.1-1.1-.7-1.8-1.6-2.5zm5.3-17.8c-.3-1.1-1.1-2.1-1.4-3.2-.6-1.9-.2-3.8.5-5.7.1-.2-.3-.5-.5-.3-1.4 1.8-1.8 4-1 6.2.6 1.7 1.8 2.9 1.7 4.8-.1 1.3-.9 2.5-.9 3.9 0 .2.3.2.3 0 .4-1.9 1.8-3.7 1.3-5.7zm43.5-21.4c0-.2-.4-.2-.4.1.1 3.8-.2 8.5-4.6 9.7-.3.1-.2.5.1.4 4.7-.8 5.6-6.1 4.9-10.2zm-38.8-.4c-1.3-.4-2.8.2-3.2 1.5-.4 1.2.1 2.8 1.4 3.2.3.1.5-.3.3-.5-.6-.6-1.1-1.4-.9-2.3.2-.9 1.3-1.5 2.2-1.3.5.2.7-.5.2-.6zm-.4-16.4c-1.6 1.7-2.9 4.3-2.4 6.7.1.2.4.2.4 0 .3-2.4.7-4.4 2.4-6.2.2-.3-.2-.7-.4-.5z" fill="#3a353a" stroke-width="none" opacity="1"></path></g><g id="svga-group-glasses-single-move" transform="matrix(1,0,0,1,0,0)"><g id="svga-group-glasses-single" transform="matrix(1,0,0,1,0,0)"><path id="SvgjsPath5964" d="M67.83 87.53c-1.67 2.99-1.59 9.34 1.67 14.89 3.26 5.55 12.51 5.9 18.06 3.17 5.55-2.73 7.75-8.19 8.02-12.24.26-4.05-3.08-6.34-4.93-7.05-1.85-.7-12.24-2.11-17-1.41s-5.82 2.64-5.82 2.64z" fill="url(#SvgjsLinearGradient5965)" opacity="1"></path><path id="SvgjsPath5968" d="M132.17 87.53c1.67 2.99 1.59 9.34-1.67 14.89-3.26 5.55-12.51 5.9-18.06 3.17-5.55-2.73-7.75-8.19-8.02-12.24-.26-4.05 3.08-6.34 4.93-7.05 1.85-.7 12.24-2.11 17-1.41s5.82 2.64 5.82 2.64z" fill="url(#SvgjsLinearGradient5969)" opacity="1"></path><path id="SvgjsPath5972" d="M119.9 108.32c-4.46 0-8.66-1.44-11.52-3.95-4.42-3.88-5.26-8.58-5.66-10.84-.09-.53-.17-.95-.26-1.21-.52-1.46-1.14-2.2-1.85-2.2h-1.22c-.7 0-1.33.74-1.85 2.2-.09.26-.17.68-.26 1.21-.4 2.26-1.23 6.96-5.66 10.84-2.86 2.51-7.06 3.95-11.52 3.95-2.9 0-5.69-.64-7.64-1.76-5.19-2.96-6.52-9.32-6.85-11.92-.42-3.28-1.72-3.91-2.11-4.02v-5.64c.36-.01 1.44-.05 2.4-.29.06-.01 6.02-1.46 11.79-1.46.95 0 1.85.04 2.67.12 5.44.53 9.82 1.57 13.01 2.33l.71.17c2.22.52 3.79.6 4.52.6.4 0 .61-.02.61-.02h1.59s.21.02.6.02c.74 0 2.3-.08 4.52-.6l.71-.17c3.2-.76 7.57-1.79 13.01-2.33.82-.08 1.72-.12 2.67-.12 5.78 0 11.73 1.45 11.79 1.46.96.24 2.04.28 2.4.29v5.64c-.39.11-1.69.74-2.11 4.02-.33 2.59-1.67 8.95-6.85 11.92-1.95 1.12-4.74 1.76-7.64 1.76zm2.34-22.87c-.77 0-1.54.02-2.26.05-1.34.06-6.94.46-9.79 1.44-2.87.98-4.78 2.91-5 5.02-.25 2.44.55 5.52 2.14 8.22 1.7 2.88 3.93 4.7 6.82 5.56 1.78.53 3.46.78 5.29.78 1.51 0 3.12-.17 4.9-.52 3.17-.63 5.51-2.96 6.96-6.94 1.27-3.5 1.48-8.76-.4-11.16-1.29-1.65-4.13-2.45-8.66-2.45zm-44.47 0c-4.54 0-7.37.8-8.66 2.44-1.88 2.4-1.67 7.67-.4 11.16 1.45 3.98 3.79 6.31 6.96 6.94 1.78.35 3.38.52 4.9.52 1.83 0 3.51-.25 5.29-.78 2.89-.86 5.12-2.68 6.82-5.56 1.59-2.7 2.39-5.77 2.14-8.22-.22-2.11-2.13-4.04-5-5.02-2.86-.98-8.45-1.39-9.79-1.44-.73-.02-1.49-.04-2.26-.04z" fill="#26120b" stroke-width="none" opacity="1"></path><path id="SvgjsPath5973" d="M122.31 83.36c5.76 0 11.7 1.44 11.76 1.46.88.22 1.86.28 2.31.29v5.43c-.5.19-1.71.97-2.11 4.09-.33 2.58-1.65 8.89-6.79 11.82-1.93 1.11-4.7 1.74-7.58 1.74-4.43 0-8.6-1.43-11.44-3.92-4.39-3.85-5.22-8.52-5.62-10.77-.1-.56-.17-.96-.27-1.23-.55-1.53-1.19-2.28-1.96-2.28h-1.22c-.77 0-1.42.75-1.96 2.28-.1.27-.17.67-.27 1.23-.4 2.24-1.23 6.92-5.62 10.77-2.84 2.49-7.01 3.92-11.44 3.92-2.88 0-5.64-.63-7.58-1.74-5.14-2.94-6.46-9.25-6.79-11.82-.4-3.12-1.61-3.9-2.11-4.09v-5.43c.45-.01 1.43-.07 2.31-.29.06-.01 6-1.46 11.76-1.46.95 0 1.84.04 2.66.12 5.43.53 9.8 1.57 12.99 2.32l.71.17c2.23.53 3.81.6 4.55.6.38 0 .59-.02.6-.02h1.58s.21.02.62.02c.74 0 2.32-.08 4.55-.6l.71-.17c3.19-.76 7.56-1.79 12.99-2.32.82-.08 1.72-.12 2.66-.12m-2.88 23.28c1.52 0 3.13-.17 4.92-.53 3.22-.64 5.59-3 7.05-7.02 1.28-3.53 1.49-8.84-.42-11.28-1.31-1.68-4.17-2.49-8.75-2.49-.69 0-1.43.02-2.27.05-1.35.06-6.96.47-9.83 1.45-2.91 1-4.86 2.96-5.08 5.13-.26 2.47.55 5.57 2.16 8.29 1.71 2.91 3.97 4.74 6.89 5.61 1.8.54 3.49.79 5.33.79m-38.86 0c1.84 0 3.53-.25 5.32-.78 2.92-.87 5.18-2.71 6.89-5.61 1.61-2.72 2.41-5.82 2.16-8.29-.22-2.16-2.17-4.13-5.08-5.13-2.87-.98-8.48-1.39-9.83-1.45-.84-.04-1.58-.05-2.27-.05-4.58 0-7.44.82-8.75 2.49-1.9 2.44-1.7 7.75-.42 11.28 1.46 4.02 3.83 6.38 7.05 7.02 1.8.35 3.41.52 4.93.52m41.74-23.53c-.91 0-1.82.04-2.68.12-5.86.58-10.47 1.73-13.74 2.5-2.18.51-3.71.6-4.5.6-.39 0-.59-.02-.59-.02h-1.6s-.2.02-.59.02c-.78 0-2.32-.09-4.5-.6-3.27-.77-7.88-1.92-13.74-2.5-.87-.09-1.77-.12-2.68-.12-5.26 0-10.84 1.22-11.82 1.47-1.15.29-2.5.29-2.5.29v5.86s1.63.19 2.11 3.94 2.21 9.32 6.92 12.01c1.98 1.13 4.75 1.77 7.7 1.77 4.05 0 8.44-1.2 11.61-3.98 5.48-4.8 5.48-10.76 5.96-12.1.48-1.34 1.06-2.11 1.73-2.11h1.22c.67 0 1.25.77 1.73 2.11.48 1.34.48 7.3 5.96 12.1 3.17 2.78 7.56 3.98 11.61 3.98 2.95 0 5.72-.64 7.7-1.77 4.71-2.69 6.44-8.26 6.92-12.01.48-3.75 2.11-3.94 2.11-3.94v-5.86s-1.34 0-2.5-.29c-1-.25-6.58-1.47-11.84-1.47zm-2.88 23.28c-1.96 0-3.64-.29-5.25-.77-2.8-.83-5.01-2.55-6.75-5.5-1.74-2.95-2.35-5.95-2.12-8.14.23-2.19 2.27-4.01 4.92-4.92 2.65-.91 7.94-1.36 9.76-1.44.73-.03 1.49-.05 2.26-.05 3.41 0 7.01.42 8.56 2.4 1.89 2.42 1.59 7.71.38 11.04-1.21 3.33-3.25 6.14-6.87 6.86-1.85.36-3.44.52-4.89.52zm-38.86 0c-1.45 0-3.04-.16-4.87-.52-3.62-.71-5.66-3.53-6.87-6.86-1.21-3.33-1.51-8.62.38-11.04 1.54-1.97 5.15-2.4 8.56-2.4.77 0 1.53.02 2.26.05 1.82.08 7.11.53 9.76 1.44 2.65.91 4.69 2.72 4.92 4.92.23 2.19-.38 5.19-2.12 8.14-1.74 2.95-3.95 4.67-6.75 5.5-1.63.48-3.31.77-5.27.77z" fill="#070201" stroke-width="none" opacity="1"></path></g></g></g></g></g><rect id="svga-credit-rect" width="200" height="15" x="0" y="185" fill="#ecf0f1" opacity="0.5" style="display: none;"></rect><text id="svga-credit-text" font-family="Avenir Next, Roboto, Helvetica, Arial, sans-serif" font-size="10px" text-anchor="start" font-weight="400" size="10px" anchor="start" weight="400" fill="#333333" x="32.3828125" y="182.6015625" style="display: none;"><tspan id="SvgjsTspan3139" dy="13" x="32.3828125">Created on AvatarMaker.com</tspan></text></g></svg>